<svg id="Calque_1" data-name="Calque 1" xmlns="http://www.w3.org/2000/svg" viewBox="0 0 1261.28 49.89"><defs><style>.cls-1{fill:#fff;}</style></defs><title>Plan de travail 1300</title><path class="cls-1" d="M10.81,12.21H21.89c9.3,0,15,5,15,13.41S31.19,39,21.89,39H10.81ZM21.35,33.33c4.9,0,7.79-2.81,7.79-7.75s-2.89-7.67-7.79-7.67h-3V33.33Z"/><path class="cls-1" d="M65,12.21,76.16,39h-8L66,33.84H55.07L53,39h-7.6L56.54,12.21ZM57.25,28.43h6.59l-3.2-7.92h-.18Z"/><path class="cls-1" d="M92,39V18.17H82.39v-6h26.87v6H99.51V39Z"/><path class="cls-1" d="M135.1,12.21,146.27,39h-8.05l-2.09-5.2H125.18L123.09,39h-7.6l11.16-26.83Zm-7.74,16.22H134l-3.21-7.92h-.17Z"/><path class="cls-1" d="M187.33,11.7c8.58,0,13.16,5.23,13.7,11.92l-7.25.26c-.45-3-2.14-5.75-6.5-5.75-4.13,0-6.53,2.93-6.53,7.49s2.4,7.5,6.53,7.5c4.36,0,6.05-2.77,6.5-5.75l7.25.3c-.54,6.68-5.12,11.88-13.7,11.88-8.19,0-14.37-5.67-14.37-13.93S179.14,11.7,187.33,11.7Z"/><path class="cls-1" d="M212.86,39V12.21h7.57V22.56h11.16V12.21h7.56V39h-7.56V28.43H220.43V39Z"/><path class="cls-1" d="M269.8,12.21,281,39h-8.05l-2.09-5.2H259.88L257.79,39h-7.6l11.16-26.83Zm-7.74,16.22h6.59l-3.21-7.92h-.17Z"/><path class="cls-1" d="M299.56,12.21V33.07h13.88v6H292V12.21Z"/><path class="cls-1" d="M333.15,12.21V33.07H347v6H325.59V12.21Z"/><path class="cls-1" d="M381.24,39H359.18V12.21h21.66v6H366.6v4.39h11v5.87h-11v4.64h14.64Z"/><path class="cls-1" d="M411.66,27.07V12.21h6.94V39h-6.05L400.46,23.15V39h-6.94V12.21h7.2Z"/><path class="cls-1" d="M430.53,25.62c0-8.26,6.36-13.92,14.45-13.92s13,4.3,13.66,11l-7.34.26c-.4-2.94-2.53-4.81-6.14-4.81-4.4,0-6.85,2.93-6.85,7.49s2.58,7.8,7.43,7.8a6.47,6.47,0,0,0,6-3.11h-6.18v-5.2h13.34V39h-6.58v-3c-1.56,2.48-4.54,3.5-8.14,3.5C436.4,39.55,430.53,33.93,430.53,25.62Z"/><path class="cls-1" d="M493.87,39H471.81V12.21h21.66v6H479.24v4.39h11v5.87h-11v4.64h14.63Z"/><path class="cls-1" d="M522.39,15.49l5.2,1.74V11.82h2.58v5.37l5.3-1.75.8,2.35-5.34,1.61,3.34,4.31-2.09,1.44-3.25-4.26-3.25,4.35-2-1.53,3.24-4.22-5.33-1.66Z"/><path class="cls-1" d="M557.4,12.21,569.05,39H565l-3.38-7.88H548.81L545.52,39h-3.78l11.43-26.83Zm-7.39,16h10.32L555.22,16.3H555Z"/><path class="cls-1" d="M585,39H581.2V12.21h10.19c6.93,0,10.89,3.15,10.89,8.39s-4,8.43-10.89,8.43H585Zm6.28-13c4.89,0,7.25-1.92,7.25-5.41s-2.36-5.37-7.25-5.37H585V26Z"/><path class="cls-1" d="M618.65,39h-3.82V12.21H625c6.93,0,10.89,3.15,10.89,8.39S632,29,625,29h-6.37Zm6.28-13c4.89,0,7.25-1.92,7.25-5.41s-2.36-5.37-7.25-5.37h-6.28V26Z"/><path class="cls-1" d="M685.34,39h-20V12.21h19.57v3.06H669.1v8.44h12.59v3H669.1V36h16.24Z"/><path class="cls-1" d="M707.05,39V15.27H696.86V12.21h24.37v3.06H710.87V39Z"/><path class="cls-1" d="M750.69,12.21h10.14c8.8,0,14.37,5,14.37,13.41S769.63,39,760.83,39H750.69ZM760.61,36c6.85,0,10.58-3.87,10.58-10.39s-3.73-10.39-10.58-10.39h-6.05V36Z"/><path class="cls-1" d="M800.33,12.21,812,39h-4.09l-3.38-7.88H791.75L788.46,39h-3.79l11.44-26.83Zm-7.38,16h10.32L798.15,16.3H798Z"/><path class="cls-1" d="M829.11,39V15.27H818.93V12.21H843.3v3.06H832.94V39Z"/><path class="cls-1" d="M865.9,12.21,877.55,39h-4.09l-3.38-7.88H857.32L854,39h-3.78l11.43-26.83Zm-7.38,16h10.32L863.72,16.3h-.18Z"/><path class="cls-1" d="M896.46,39,885.21,12.21h4l9.47,22.57h.18L908,12.21h3.91L900.64,39Z"/><path class="cls-1" d="M928,12.21V39h-3.87V12.21Z"/><path class="cls-1" d="M944,29.24c.22,4.9,3.74,7.41,8.45,7.41,4.18,0,6.81-1.7,6.81-4.64,0-2.47-1.69-3.66-5.34-4.34l-5.56-1c-4.14-.76-7-2.89-7-7.07,0-4.68,3.88-7.87,10-7.87,7,0,11.08,3.57,11.12,9.62l-3.51.17c-.13-4.43-2.94-6.94-7.56-6.94-4.05,0-6.32,1.83-6.32,4.81,0,2.64,1.83,3.49,5.07,4.09l5.07.94c5.12.93,7.7,3.06,7.7,7.36,0,4.94-4.45,7.8-10.5,7.8-6.89,0-11.92-3.62-11.92-10.1Z"/><path class="cls-1" d="M1051.26,34.66v3.2h-20.59V35.73l7.92-6.52c4.4-3.66,7.69-6.39,7.69-10.31,0-3.15-1.87-5.36-5.56-5.36s-6,2.34-6,6.26a9.21,9.21,0,0,0,.31,2.43l-3.82-.17a12.48,12.48,0,0,1-.31-2.52c0-5.49,3.87-9,9.83-9,6.54,0,9.52,3.67,9.52,8.22,0,4.86-4.32,8.56-8.37,11.76l-5.29,4.17Z"/><path class="cls-1" d="M1066.17,38.37c-7.34,0-11.61-5-11.61-13.93s4.27-13.93,11.61-13.93,11.65,5,11.65,13.93S1073.51,38.37,1066.17,38.37Zm0-24.87c-5.16,0-7.61,3.66-7.61,10.94s2.45,11,7.61,11,7.6-3.67,7.6-10.95S1071.33,13.5,1066.17,13.5Z"/><path class="cls-1" d="M1080.8,14.94c3.92,0,5.56-1.27,6.59-4.08h2.53v27h-3.87V17.33h-5.25Z"/><path class="cls-1" d="M1095.44,30.74a6.71,6.71,0,0,1,5.78-6.43,6.46,6.46,0,0,1-4.76-6.34c0-4.64,4.09-7.46,9.61-7.46s9.56,2.82,9.56,7.46a6.45,6.45,0,0,1-4.76,6.34,6.67,6.67,0,0,1,5.74,6.43c0,4.69-4,7.63-10.54,7.63S1095.44,35.43,1095.44,30.74Zm4-.17c0,3.15,2.36,5,6.63,5s6.58-1.88,6.58-5-2.36-4.81-6.58-4.81S1099.44,27.42,1099.44,30.57Zm.8-12.35c0,3.07,2.36,4.77,5.83,4.77s5.83-1.7,5.83-4.77c0-3.32-2.41-5-5.83-5S1100.24,14.9,1100.24,18.22Z"/><path class="cls-1" d="M1121.37,25.72h39.41v2.6h-39.41Z"/><path class="cls-1" d="M1184.72,34.66v3.2h-20.6V35.73l7.92-6.52c4.4-3.66,7.69-6.39,7.69-10.31,0-3.15-1.86-5.36-5.56-5.36s-6,2.34-6,6.26a8.82,8.82,0,0,0,.32,2.43l-3.83-.17a12.48,12.48,0,0,1-.31-2.52c0-5.49,3.87-9,9.83-9,6.54,0,9.52,3.67,9.52,8.22,0,4.86-4.32,8.56-8.36,11.76l-5.3,4.17Z"/><path class="cls-1" d="M1199.62,38.37c-7.34,0-11.61-5-11.61-13.93s4.27-13.93,11.61-13.93,11.65,5,11.65,13.93S1207,38.37,1199.62,38.37Zm0-24.87c-5.16,0-7.61,3.66-7.61,10.94s2.45,11,7.61,11,7.6-3.67,7.6-10.95S1204.78,13.5,1199.62,13.5Z"/><path class="cls-1" d="M1214.25,14.94c3.92,0,5.57-1.27,6.59-4.08h2.53v27h-3.87V17.33h-5.25Z"/><path class="cls-1" d="M1247.26,23.42c-1,3.11-3.83,5.49-8.36,5.49-6.05,0-9.83-3.79-9.83-9.07,0-5.54,4-9.33,10.23-9.33,7.47,0,11.38,5.2,11.38,13.42,0,8.39-3.69,14.44-11.56,14.44-5.56,0-9.3-3.07-9.79-8.09l3.7-.13c.49,3.15,2.35,5.28,6.13,5.28C1244.86,35.43,1247.3,30.45,1247.26,23.42Zm-7.92-9.92c-4.13,0-6.58,2.47-6.58,6.21s2.45,6.26,6.72,6.26,6.67-2.47,6.67-6.26S1243.52,13.5,1239.34,13.5Z"/></svg>