<?xml version="1.0" encoding="utf-8"?>
<!-- Generator: Adobe Illustrator 22.0.1, SVG Export Plug-In . SVG Version: 6.00 Build 0)  -->
<svg version="1.0" id="Calque_1" xmlns="http://www.w3.org/2000/svg" xmlns:xlink="http://www.w3.org/1999/xlink" x="0px" y="0px"
	 viewBox="0 0 505.3 145.9" style="enable-background:new 0 0 505.3 145.9;" xml:space="preserve">
<style type="text/css">
	.st0{fill:#FFFFFF;}
</style>
<title>Plan de travail 1300</title>
<path class="st0" d="M10.8,12.2h11.1c9.3,0,15,5,15,13.4S31.2,39,21.9,39H10.8V12.2z M21.4,33.3c4.9,0,7.8-2.8,7.8-7.8
	s-2.9-7.7-7.8-7.7h-3v15.4H21.4z"/>
<path class="st0" d="M65,12.2L76.2,39h-8L66,33.8H55.1L53,39h-7.6l11.1-26.8H65z M57.3,28.4h6.6l-3.2-7.9h-0.2L57.3,28.4z"/>
<path class="st0" d="M92,39V18.2h-9.6v-6h26.9v6h-9.8V39H92z"/>
<path class="st0" d="M135.1,12.2L146.3,39h-8.1l-2.1-5.2h-11l-2.1,5.2h-7.6l11.2-26.8L135.1,12.2z M127.4,28.4h6.6l-3.2-7.9h-0.2
	L127.4,28.4z"/>
<path class="st0" d="M187.3,11.7c8.6,0,13.2,5.2,13.7,11.9l-7.3,0.3c-0.4-3-2.1-5.8-6.5-5.8c-4.1,0-6.5,2.9-6.5,7.5s2.4,7.5,6.5,7.5
	c4.4,0,6.1-2.8,6.5-5.8l7.3,0.3c-0.5,6.7-5.1,11.9-13.7,11.9c-8.2,0-14.4-5.7-14.4-13.9S179.1,11.7,187.3,11.7z"/>
<path class="st0" d="M212.9,39V12.2h7.6v10.3h11.2V12.2h7.6V39h-7.6V28.4h-11.2V39H212.9z"/>
<path class="st0" d="M269.8,12.2L281,39h-8l-2.1-5.2h-11l-2.1,5.2h-7.6l11.2-26.8L269.8,12.2z M262.1,28.4h6.6l-3.2-7.9h-0.2
	L262.1,28.4z"/>
<path class="st0" d="M299.6,12.2v20.9h13.9v6H292V12.2H299.6z"/>
<path class="st0" d="M333.1,12.2v20.9H347v6h-21.4V12.2H333.1z"/>
<path class="st0" d="M381.2,39h-22.1V12.2h21.7v6h-14.2v4.4h11v5.9h-11v4.6h14.6L381.2,39z"/>
<path class="st0" d="M411.7,27.1V12.2h6.9V39h-6l-12.1-15.9V39h-6.9V12.2h7.2L411.7,27.1z"/>
<path class="st0" d="M430.5,25.6c0-8.3,6.4-13.9,14.5-13.9s13,4.3,13.7,11l-7.3,0.3c-0.4-2.9-2.5-4.8-6.1-4.8
	c-4.4,0-6.9,2.9-6.9,7.5s2.6,7.8,7.4,7.8c2.4,0.2,4.7-1,6-3.1h-6.2v-5.2h13.3V39h-6.6v-3c-1.6,2.5-4.5,3.5-8.1,3.5
	C436.4,39.5,430.5,33.9,430.5,25.6z"/>
<path class="st0" d="M493.9,39h-22.1V12.2h21.7v6h-14.2v4.4h11v5.9h-11v4.6h14.6V39z"/>
<path class="st0" d="M33.8,62.5l5.2,1.7v-5.4h2.6v5.4l5.3-1.8l0.8,2.4l-5.3,1.6l3.3,4.3l-2.1,1.4l-3.3-4.3l-3.3,4.3l-2-1.5l3.2-4.2
	L33,64.8L33.8,62.5z"/>
<path class="st0" d="M68.8,59.2L80.4,86h-4L73,78.1H60.2L56.9,86h-3.8l11.4-26.8L68.8,59.2z M61.4,75.2h10.3l-5.1-11.9h-0.2
	L61.4,75.2z"/>
<path class="st0" d="M96.4,86h-3.8V59.2h10.2c6.9,0,10.9,3.1,10.9,8.4c0,5.2-4,8.4-10.9,8.4h-6.4V86z M102.7,73
	c4.9,0,7.3-1.9,7.3-5.4c0-3.5-2.4-5.4-7.3-5.4h-6.3V73H102.7z"/>
<path class="st0" d="M130,86h-3.8V59.2h10.2c6.9,0,10.9,3.1,10.9,8.4c0,5.2-3.9,8.4-10.9,8.4H130L130,86z M136.3,73
	c4.9,0,7.3-1.9,7.3-5.4c0-3.5-2.4-5.4-7.3-5.4H130V73H136.3z"/>
<path class="st0" d="M196.7,86h-20V59.2h19.6v3.1h-15.8v8.4h12.6v3h-12.6V83h16.2L196.7,86z"/>
<path class="st0" d="M218.4,86V62.2h-10.2v-3.1h24.4v3.1h-10.4V86H218.4z"/>
<path class="st0" d="M262.1,59.2h10.1c8.8,0,14.4,5,14.4,13.4S281,86,272.2,86h-10.1V59.2z M272,83c6.8,0,10.6-3.9,10.6-10.4
	c0-6.5-3.7-10.4-10.6-10.4h-6V83H272z"/>
<path class="st0" d="M311.7,59.2L323.4,86h-4.1l-3.4-7.9h-12.8l-3.3,7.9h-3.8l11.4-26.8L311.7,59.2z M304.3,75.2h10.3l-5.1-11.9
	h-0.2L304.3,75.2z"/>
<path class="st0" d="M340.5,86V62.2h-10.2v-3.1h24.4v3.1h-10.4V86H340.5z"/>
<path class="st0" d="M377.3,59.2L388.9,86h-4.1l-3.4-7.9h-12.8l-3.3,7.9h-3.8L373,59.1L377.3,59.2z M369.9,75.2h10.3l-5.1-11.9h-0.2
	L369.9,75.2z"/>
<path class="st0" d="M407.8,86l-11.3-26.8h4l9.5,22.6h0.2l9.1-22.6h3.9L412,86H407.8z"/>
<path class="st0" d="M439.4,59.2V86h-3.9V59.2H439.4z"/>
<path class="st0" d="M455.4,76.2c0.2,4.9,3.7,7.4,8.5,7.4c4.2,0,6.8-1.7,6.8-4.6c0-2.5-1.7-3.7-5.3-4.3l-5.6-1c-4.1-0.8-7-2.9-7-7.1
	c0-4.7,3.9-7.9,10-7.9c7,0,11.1,3.6,11.1,9.6l-3.5,0.2c-0.1-4.4-2.9-6.9-7.6-6.9c-4,0-6.3,1.8-6.3,4.8c0,2.6,1.8,3.5,5.1,4.1
	l5.1,0.9c5.1,0.9,7.7,3.1,7.7,7.4c0,4.9-4.5,7.8-10.5,7.8c-6.9,0-11.9-3.6-11.9-10.1L455.4,76.2z"/>
<path class="st0" d="M158.6,130.2v3.2H138v-2.1l7.9-6.5c4.4-3.7,7.7-6.4,7.7-10.3c0-3.1-1.9-5.4-5.6-5.4s-6,2.3-6,6.3
	c0,0.8,0.1,1.6,0.3,2.4l-3.8-0.2c-0.2-0.8-0.3-1.7-0.3-2.5c0-5.5,3.9-9,9.8-9c6.5,0,9.5,3.7,9.5,8.2c0,4.9-4.3,8.6-8.4,11.8
	l-5.3,4.2L158.6,130.2z"/>
<path class="st0" d="M173.5,133.9c-7.3,0-11.6-5-11.6-13.9s4.3-13.9,11.6-13.9s11.7,5,11.7,13.9S180.8,133.9,173.5,133.9z
	 M173.5,109.1c-5.2,0-7.6,3.7-7.6,10.9c0,7.3,2.4,11,7.6,11s7.6-3.7,7.6-10.9S178.7,109.1,173.5,109.1z"/>
<path class="st0" d="M188.1,110.5c3.9,0,5.6-1.3,6.6-4.1h2.5v27h-3.9v-20.5h-5.3V110.5z"/>
<path class="st0" d="M202.8,126.3c0.1-3.3,2.5-6,5.8-6.4c-2.8-0.8-4.8-3.4-4.8-6.3c0-4.6,4.1-7.5,9.6-7.5s9.6,2.8,9.6,7.5
	c0.1,3-1.9,5.6-4.8,6.3c3.2,0.5,5.7,3.2,5.7,6.4c0,4.7-4,7.6-10.5,7.6S202.8,131,202.8,126.3z M206.8,126.1c0,3.1,2.4,5,6.6,5
	s6.6-1.9,6.6-5c0-3.1-2.4-4.8-6.6-4.8S206.8,123,206.8,126.1z M207.6,113.8c0,3.1,2.4,4.8,5.8,4.8s5.8-1.7,5.8-4.8
	c0-3.3-2.4-5-5.8-5S207.6,110.5,207.6,113.8z"/>
<path class="st0" d="M228.7,121.3h39.4v2.6h-39.4V121.3z"/>
<path class="st0" d="M292,130.2v3.2h-20.6v-2.1l7.9-6.5c4.4-3.7,7.7-6.4,7.7-10.3c0-3.1-1.9-5.4-5.6-5.4s-6,2.3-6,6.3
	c0,0.8,0.1,1.6,0.3,2.4l-3.8-0.2c-0.2-0.8-0.3-1.7-0.3-2.5c0-5.5,3.9-9,9.8-9c6.5,0,9.5,3.7,9.5,8.2c0,4.9-4.3,8.6-8.4,11.8
	l-5.3,4.2L292,130.2z"/>
<path class="st0" d="M306.9,133.9c-7.3,0-11.6-5-11.6-13.9s4.3-13.9,11.6-13.9s11.7,5,11.7,13.9S314.3,133.9,306.9,133.9z
	 M306.9,109.1c-5.2,0-7.6,3.7-7.6,10.9c0,7.3,2.4,11,7.6,11s7.6-3.7,7.6-10.9S312.1,109.1,306.9,109.1z"/>
<path class="st0" d="M321.6,110.5c3.9,0,5.6-1.3,6.6-4.1h2.5v27h-3.9v-20.5h-5.3V110.5z"/>
<path class="st0" d="M354.6,119c-1,3.1-3.8,5.5-8.4,5.5c-6.1,0-9.8-3.8-9.8-9.1c0-5.5,4-9.3,10.2-9.3c7.5,0,11.4,5.2,11.4,13.4
	c0,8.4-3.7,14.4-11.6,14.4c-5.6,0-9.3-3.1-9.8-8.1l3.7-0.1c0.5,3.1,2.3,5.3,6.1,5.3C352.2,131,354.6,126,354.6,119z M346.7,109.1
	c-4.1,0-6.6,2.5-6.6,6.2s2.4,6.3,6.7,6.3s6.7-2.5,6.7-6.3S350.8,109.1,346.7,109.1z"/>
</svg>
