<svg id="Calque_1" data-name="Calque 1" xmlns="http://www.w3.org/2000/svg" viewBox="0 0 1869.28 158.89"><defs><style>.cls-1,.cls-2{fill:#939393;}.cls-2{font-size:46.89px;font-family:TimesNewRomanPSMT, Times New Roman;}</style></defs><title>Plan de travail 1300</title><path class="cls-1" d="M46.06,79.18c6.28,0,8.15-.34,8.83-.85.26-.17.51-.51.51-1.61,0-2.38-1.61-5.35-6.54-5.35S39.52,76,39.44,78.76c0,.17,0,.42.59.42Zm-5.27,2.55c-2.2,0-2.29.17-2.29,2.29,0,8.58,5,15.89,14.1,15.89,2.8,0,5.18-.85,7.81-4.16a1.12,1.12,0,0,1,1.53,1c-2.8,5.78-8.92,7.9-13.33,7.9a15.23,15.23,0,0,1-12.32-5.6,18.09,18.09,0,0,1-3.57-11c0-10.45,6.89-19.2,17.08-19.2,7.3,0,12.06,5,12.06,10.11a5.19,5.19,0,0,1-.34,2.2c-.26.52-1.44.6-5,.6H40.79m37.88-8.15c-1.44,0-1.52.25-1.52,2V91.5c0,4.92.6,9.43,6.2,9.43a6.42,6.42,0,0,0,2.29-.43c.77-.26,1.87-1.19,2.12-1.19.68,0,1,.93.86,1.45a11.8,11.8,0,0,1-8.92,3.9c-7.31,0-8.84-4.07-8.84-9.17V76c0-2.29-.08-2.46-1.78-2.46H66.7a1.42,1.42,0,0,1-.25-1.79,16.76,16.76,0,0,0,5.43-2.63,21.15,21.15,0,0,0,3.57-5c.43-.17,1.44-.17,1.78.42V68.4c0,1.52.09,1.61,1.53,1.61h9.43c1,.76.85,3.06.08,3.57h-9.6m25.66,27.26a9.56,9.56,0,0,0,5.18-2.12c1-1,1.11-2.21,1.11-4l.17-5c0-.94-.34-1.11-.85-1.11a16.06,16.06,0,0,0-3.49.85c-5,1.7-7.47,3-7.47,6.29A5.11,5.11,0,0,0,104.33,100.84Zm5.26-15c1.28-.42,1.36-1.19,1.45-2.46l.08-3.91c.09-3.14-.93-7.39-6.2-7.39-2.37,0-5.26,1.19-5.43,3.83-.09,1.36-.17,2.37-.85,2.88a9.17,9.17,0,0,1-4.84,1.62,1.08,1.08,0,0,1-1.19-1.19c0-4.42,9.59-10.45,15.8-10.45s9.08,3.57,8.83,9.94l-.51,14.78c-.17,3.91.6,7.39,3.91,7.39a4.87,4.87,0,0,0,2.12-.51c.42-.26.85-.6,1.11-.6s.59.51.59,1.11c0,.42-3,3.74-7.13,3.74A6.78,6.78,0,0,1,111.8,102c-.34-.51-.85-1.19-1.35-1.19s-1.62.77-3.32,1.7c-1.87,1-3.73,2.13-6.11,2.13a8.81,8.81,0,0,1-6-2,8,8,0,0,1-2.63-5.95c0-3.31,1.61-5.26,7-7.22l10.1-3.65M137.54,94c0,6.12.17,7,3.23,7.39l2,.26a1.49,1.49,0,0,1-.17,2.12q-4.11-.26-8.24-.26c-3.06,0-5.61.09-8.16.26a1.49,1.49,0,0,1-.17-2.12l2-.26c3.14-.42,3.23-1.27,3.23-7.39V55.57c0-5-.09-5.52-2.64-7l-.85-.51a1.3,1.3,0,0,1,0-1.7A59.59,59.59,0,0,0,137,42.74a.93.93,0,0,1,.85.51c-.09,2.55-.26,6.8-.26,10.54V94m22.09,6.88a9.62,9.62,0,0,0,5.18-2.12c1-1,1.1-2.21,1.1-4l.17-5c0-.94-.34-1.11-.85-1.11a16,16,0,0,0-3.48.85c-5,1.7-7.48,3-7.48,6.29a5.12,5.12,0,0,0,5.36,5.09Zm5.26-15c1.28-.42,1.36-1.19,1.45-2.46l.08-3.91c.09-3.14-.93-7.39-6.2-7.39-2.38,0-5.27,1.19-5.44,3.82-.08,1.37-.17,2.38-.84,2.89a9.17,9.17,0,0,1-4.85,1.62,1.08,1.08,0,0,1-1.19-1.19c0-4.42,9.6-10.45,15.8-10.45s9.09,3.57,8.84,9.94L172,93.54c-.18,3.91.59,7.39,3.91,7.39a5,5,0,0,0,2.12-.51c.42-.26.84-.6,1.1-.6s.6.51.6,1.11c0,.42-3,3.73-7.14,3.73A6.76,6.76,0,0,1,167.1,102c-.34-.51-.85-1.19-1.36-1.19s-1.61.76-3.31,1.7c-1.87,1-3.74,2.12-6.12,2.12a8.79,8.79,0,0,1-5.94-2,8,8,0,0,1-2.64-5.95c0-3.31,1.62-5.26,7.05-7.22l10.11-3.65m26.84,6a11.69,11.69,0,0,0,2.13,7.39,8.05,8.05,0,0,0,6.45,2.81c8,0,11.13-6.8,11.13-14.1,0-8.75-4.5-15.55-12.91-15.55a11.15,11.15,0,0,0-5.78,1.36c-.85.6-1,1.53-1,4.84V91.92Zm-6.28-36.35c0-5-.08-5.52-2.64-7L182,48a1.3,1.3,0,0,1,0-1.7c2-.76,6-1.87,9.26-3.57a.93.93,0,0,1,.85.51c-.17,3-.34,6.8-.34,10.54V69.84c0,1.44.34,1.78.85,1.78a19.67,19.67,0,0,1,9.77-2.8c9.68,0,16.22,7.3,16.22,16.65,0,11.29-8.15,19.19-19.53,19.19a21.7,21.7,0,0,1-7.22-1.1,27.88,27.88,0,0,0-3.57-1.11c-.68,0-1.36.69-1.78,1.28-.09.08-.17.08-.34.08a.93.93,0,0,1-.85-.5c.08-1.19.17-2.81.17-7.22V55.57"/><path class="cls-1" d="M200.69,55.28a2.26,2.26,0,0,0,2.25,2.45,2.88,2.88,0,0,0,2.1-1v-3.2a3,3,0,0,0-2-.77A2.33,2.33,0,0,0,200.69,55.28ZM206.14,59a3,3,0,0,1-.62,2,3.27,3.27,0,0,1-2.6,1,3.4,3.4,0,0,1-2.31-.73,1.06,1.06,0,0,1-.35-.79.79.79,0,0,1,.79-.82.65.65,0,0,1,.67.68.72.72,0,0,1-.13.45,2.64,2.64,0,0,0,1.33.27,2.1,2.1,0,0,0,1.71-.67A2,2,0,0,0,205,59V57.68a3,3,0,0,1-2.27,1,3.26,3.26,0,0,1-3.24-3.39,3.39,3.39,0,0,1,3.38-3.5,3.09,3.09,0,0,1,2.17.87v-.75h2.16v1h-1.1V59m8-3.63a2.36,2.36,0,1,0-2.35,2.57A2.36,2.36,0,0,0,214.12,55.33Zm-5.85,0a3.5,3.5,0,1,1,3.5,3.53,3.42,3.42,0,0,1-3.5-3.53M217.5,58a2.8,2.8,0,0,1-.32-1.39V52.9h-1.09v-1h2.2v4.43a2,2,0,0,0,.18.92,1.13,1.13,0,0,0,1.12.57,3.28,3.28,0,0,0,2.24-1.2V52.9h-1.12v-1h2.23v5.86H224v.95h-2.16V57.47a3.54,3.54,0,0,1-2.54,1.39A1.93,1.93,0,0,1,217.5,58m7.87-5.05h-.9v-1h3.17v.94h-1.09l2,4.5,2-4.5h-1.13v-.94h3.15v1h-.89L228.84,59h-.61l-2.86-6.06m7,5a1,1,0,1,1,1,1,1,1,0,0,1-1-1m6.28-10a.86.86,0,0,0-.52.32,2.15,2.15,0,0,0-.38,1.43v2.28h1.77v1h-1.77v4.88h1.34v.95h-3.54v-.95h1.11V52.9H235.4v-1h1.22v-2a3.13,3.13,0,0,1,.71-2.36,2.11,2.11,0,0,1,1.56-.63c.73,0,1.24.35,1.24.91a.7.7,0,0,1-.69.76.86.86,0,0,1-.83-.68m7,4.8a.8.8,0,0,1-.77.81.86.86,0,0,1-.81-.57,2.8,2.8,0,0,0-1.47,1.44v3.41h1.27v.95h-3.47v-.95h1.09V52.9h-1.09v-1h2.15v1.55a2.85,2.85,0,0,1,2.08-1.67.92.92,0,0,1,1,.89"/><path class="cls-1" d="M293.45,97.86a2.71,2.71,0,0,0-2.74,2.67h0a2.67,2.67,0,0,0,2.69,2.53,2.71,2.71,0,0,0,2.84-2.53A2.78,2.78,0,0,0,293.45,97.86Zm37.87-29.93v34.62h-6.07V99.18a13,13,0,0,1-4.16,3,12.11,12.11,0,0,1-4.93.94,14.09,14.09,0,0,1-7-1.78,13.1,13.1,0,0,1-5-4.92,13.59,13.59,0,0,1-1.83-6.93,13.78,13.78,0,0,1,1.84-7,13.37,13.37,0,0,1,5-5,13.73,13.73,0,0,1,7-1.83,13.49,13.49,0,0,1,4.87.87,10.23,10.23,0,0,1,3.73,2.38v-11ZM316.93,81.36a8,8,0,0,0-5.55,13.73,8,8,0,0,0,5.82,2.35,7.92,7.92,0,0,0,8-8,7.82,7.82,0,0,0-2.34-5.82A8.1,8.1,0,0,0,316.93,81.36Zm48.81-4.78v26h-6.05V99.18a12.7,12.7,0,0,1-4.12,3.06,12.53,12.53,0,0,1-5,.92,14.72,14.72,0,0,1-7.16-1.72,12.56,12.56,0,0,1-5-4.82,13.65,13.65,0,0,1-1.79-7,13.84,13.84,0,0,1,1.8-7,12.78,12.78,0,0,1,5-4.88A14.73,14.73,0,0,1,350.67,76a12.46,12.46,0,0,1,5.15,1,10.45,10.45,0,0,1,3.87,3.1V76.58Zm-14.48,5.13A7.68,7.68,0,0,0,345.55,84a8,8,0,0,0-2.24,5.81,7.19,7.19,0,0,0,2.27,5.53,8.29,8.29,0,0,0,5.89,2.11,7.92,7.92,0,0,0,5.8-2.15,7.49,7.49,0,0,0,2.2-5.62,7.62,7.62,0,0,0-2.3-5.74A8.11,8.11,0,0,0,351.26,81.71Zm23.56,20.84V82.26h-3.24V76.58h3.24V67.93h6.6v8.65h4v5.68h-4v20.29Zm44-26v26h-6V99.18a12.81,12.81,0,0,1-4.12,3.06,12.55,12.55,0,0,1-5.05.92,14.71,14.71,0,0,1-7.15-1.72,12.56,12.56,0,0,1-5-4.82,13.65,13.65,0,0,1-1.79-7,13.84,13.84,0,0,1,1.8-7,12.71,12.71,0,0,1,5-4.88A14.73,14.73,0,0,1,403.77,76a12.46,12.46,0,0,1,5.15,1,10.53,10.53,0,0,1,3.87,3.1V76.58Zm-14.49,5.13a7.67,7.67,0,0,0-5.7,2.28,8,8,0,0,0-2.24,5.81,7.19,7.19,0,0,0,2.27,5.53,8.29,8.29,0,0,0,5.89,2.11,7.92,7.92,0,0,0,5.8-2.15,7.53,7.53,0,0,0,2.2-5.62,7.62,7.62,0,0,0-2.3-5.74A8.11,8.11,0,0,0,404.35,81.71Zm25.9,16.15a2.7,2.7,0,0,0-2.74,2.67h0a2.66,2.66,0,0,0,2.69,2.53,2.7,2.7,0,0,0,2.83-2.53A2.77,2.77,0,0,0,430.25,97.86Zm32.69-21.28h6.32v21a24,24,0,0,1-.71,6.41,10.79,10.79,0,0,1-2.33,4.36q-3.93,4.51-11.25,4.51a17.15,17.15,0,0,1-8.77-2.17,12.71,12.71,0,0,1-5.4-6.09h7.51a8.88,8.88,0,0,0,3,2.14,10.53,10.53,0,0,0,3.89.63,7.31,7.31,0,0,0,5.61-2.06c1.29-1.37,2-3.45,2.09-6.25a12.27,12.27,0,0,1-4,3.1,12,12,0,0,1-5,1,13.86,13.86,0,0,1-7-1.76,12.37,12.37,0,0,1-4.82-4.91,14.49,14.49,0,0,1-1.73-7.1,12.9,12.9,0,0,1,3.87-9.58A13.23,13.23,0,0,1,453.93,76q5.93,0,9,3.88Zm-8.35,5.13a7.22,7.22,0,0,0-5.49,2.18A8.06,8.06,0,0,0,447,89.67a7.68,7.68,0,0,0,2.1,5.66,7.6,7.6,0,0,0,5.65,2.11,7.36,7.36,0,0,0,7.87-7.87,7.62,7.62,0,0,0-2.22-5.69A8,8,0,0,0,454.59,81.71Zm36-5.72a14.94,14.94,0,0,1,7.29,1.83,13.94,13.94,0,0,1,5.3,5,12.71,12.71,0,0,1,1.94,6.83,12.55,12.55,0,0,1-1.95,6.78,14,14,0,0,1-5.34,4.95,15.85,15.85,0,0,1-14.71,0,14.09,14.09,0,0,1-5.36-4.95,12.44,12.44,0,0,1-2-6.78A12.83,12.83,0,0,1,477,84.3,13.49,13.49,0,0,1,480.1,80a15,15,0,0,1,4.73-2.9A15.64,15.64,0,0,1,490.61,76Zm-.27,5.72a7.83,7.83,0,0,0-5.51,13.42,7.63,7.63,0,0,0,5.61,2.31,7.77,7.77,0,0,0,5.66-2.3,7.4,7.4,0,0,0,2.36-5.52A7.51,7.51,0,0,0,496.1,84,8,8,0,0,0,490.34,81.71Zm45.78-5.13v26H530v-2.5a12.3,12.3,0,0,1-3.66,2.42,11.59,11.59,0,0,1-4.24.69,11.36,11.36,0,0,1-5-1.06,9,9,0,0,1-3.57-3A10.18,10.18,0,0,1,512,95.59a23.58,23.58,0,0,1-.44-5.08V76.58h6.64v12.7a22,22,0,0,0,.31,4.22,5.24,5.24,0,0,0,1.07,2.39,5,5,0,0,0,3.84,1.55,6.92,6.92,0,0,0,3.07-.65A4.65,4.65,0,0,0,528.56,95a6,6,0,0,0,.74-2.25,27.57,27.57,0,0,0,.21-3.88V76.58Zm16.41,26-11.1-26h7.36l6.37,17.2,6.27-17.2h7.48l-11.1,26Zm19.87-4.69a2.61,2.61,0,0,0-2.57,2.67,2.57,2.57,0,0,0,2.52,2.53,2.61,2.61,0,0,0,2.67-2.53A2.69,2.69,0,0,0,572.4,97.86Z"/><path class="cls-1" d="M581.19,78.52h5.44L581.13,104c-1.44,6.57-3.41,9.86-6,9.86a1.06,1.06,0,0,1-1.19-1,1.12,1.12,0,0,1,.24-.59,1.83,1.83,0,0,0,.29-1,2.34,2.34,0,0,0-2.36-2.33h0a2.38,2.38,0,0,0-2.21,2.57c0,2,2.09,3.65,4.72,3.65,5.44,0,9.69-6,12.31-17.15l4.49-19.43H598l.36-1.91h-6.52c1.8-9.56,4.13-13.8,7.47-13.8.84,0,1.32.29,1.32.77a1.31,1.31,0,0,1-.24.6,2.08,2.08,0,0,0-.36,1.25,2.19,2.19,0,0,0,2.21,2.4,2.57,2.57,0,0,0,2.57-2.45c0-2.22-2.21-3.89-5.2-3.89s-5.32,1.32-7.53,4.13c-1.79,2.38-3,5.13-4.9,11h-5.61l-.42,1.91Zm21.09,24c3.29-10.46,4.3-12.91,7.06-17.51,2.09-3.41,3.76-5.26,4.77-5.26.42,0,.72.24,1,.83a1.94,1.94,0,0,0,2.15,1.32c1.8,0,2.81-1.08,2.81-3a2.79,2.79,0,0,0-2.81-3.11c-1.37,0-3,.9-4.6,2.57a30.94,30.94,0,0,0-6,8.49l-.89,2.21L609.15,76l-.17-.12c-4.37.78-5,.9-9.39,1.62v1a11.16,11.16,0,0,1,2-.3c1.32,0,2.1.6,2.1,1.68a30.56,30.56,0,0,1-1,5l-5.08,17.69Z"/><path class="cls-1" d="M862.42,145.72c-.14-.05-.14-.18,0-.48s.21-.4.76-.33.65,0,.85-.25c.41-.52.1-.9-.64-.77-.57.09-.57.09-.46-.3.33-1.24.36-1.17-.65-1.35a6.21,6.21,0,0,1-3.28-1.73,5.62,5.62,0,0,1-1.67-4.9,4.92,4.92,0,0,1,.55-2.33c1.19-2.38,3.91-3.59,7.58-3.37a16.33,16.33,0,0,1,2.24.27l.8.18.08,2.64h-.49c-.28,0-.48-.07-.48-.18,0-.38-1-1.24-1.68-1.48a6,6,0,0,0-3.49.15c-2,.86-2.89,3.1-2.28,5.66a5.12,5.12,0,0,0,1.62,2.8,4,4,0,0,0,3,1.09,3,3,0,0,0,2.86-1.49c.41-.68.54-.77.93-.55.18.1.18.34,0,1.42l-.21,1.31-.72.22a12.18,12.18,0,0,1-2,.32c-1.25.08-1.32.1-1.32.42s.09.34.36.34a1.19,1.19,0,0,1,1.15.85,1.69,1.69,0,0,1-.89,1.66,5.78,5.78,0,0,1-2.48.12l.06.06Zm-94.75-.6a13.45,13.45,0,0,1-4-1.86l-1.23-.82-1.9-.09a6.58,6.58,0,0,1-4.22-1.22c-3-2-3.13-7.09-.2-9.56a8.67,8.67,0,0,1,8.86-.88c3.76,1.84,4.17,7.29.74,10.15a4.87,4.87,0,0,1-1.15.8,28.61,28.61,0,0,0,4.52,2.23,6.16,6.16,0,0,0,3.66.15c.75-.24.89-.21,1,.22.08.26-.06.36-.81.68a10.14,10.14,0,0,1-5.22.2ZM763,140.67c2.67-1.25,3.18-5.28,1-7.85a4.08,4.08,0,0,0-6.9.7c-1.2,2.46.17,6.27,2.63,7.28a4.23,4.23,0,0,0,3.29-.13Zm-83.7,1.49c-.73-.28-1.53-1.18-2.8-3.12-2-3-2.31-3.43-2.86-3.43h-.47v1.62c0,3,.34,4,1.37,4.19.27.06.38.19.38.44v.36H668.4v-.33c0-.25.13-.36.5-.47a1.72,1.72,0,0,0,.84-.54c.33-.39.33-.53.33-6s0-5.58-.33-6a2,2,0,0,0-.84-.53c-.36-.09-.5-.21-.5-.45s0-.31,4.05-.4c4.28-.09,5.23,0,6.44.51a3.64,3.64,0,0,1,1.93,3.07,4.4,4.4,0,0,1-2.66,3.65l-.8.36,1.76,2.37c2.06,2.8,2.71,3.54,3.32,3.83s.62.85.09,1a9.54,9.54,0,0,1-3.22-.11v0Zm-4-8a2.69,2.69,0,0,0,1.24-4.6,3.13,3.13,0,0,0-2.6-.77l-.78.1v5.43h.75a6.55,6.55,0,0,0,1.39-.16Zm36.69,8a4.92,4.92,0,0,1-2.13-1.29c-.8-.94-.88-1.43-.89-5.24,0-4-.09-4.43-.9-4.76-.33-.14-.52-.32-.52-.51s.1-.29,2.7-.29,2.71,0,2.71.33-.09.32-.29.32a1.36,1.36,0,0,0-.68.37l-.38.37v3.91c0,3.67,0,3.94.33,4.47a2.75,2.75,0,0,0,2.7,1.2,2.66,2.66,0,0,0,2.59-1.54c.4-.79.42-.83.42-4.33,0-3.13,0-3.57-.29-3.91a1.45,1.45,0,0,0-.67-.48c-.26-.05-.41-.19-.41-.36s.15-.27,2.15-.27,2.14,0,2.14.27-.15.31-.39.36c-.74.16-.79.47-.87,4.62l-.09,3.89-.48.83a4.19,4.19,0,0,1-2.66,2,10.78,10.78,0,0,1-4.12,0Zm62.1,0a4.85,4.85,0,0,1-2.14-1.31c-.75-.89-.86-1.55-.87-5.3,0-3.9-.11-4.34-.9-4.68-.34-.14-.53-.32-.53-.51s.09-.29,2.7-.29,2.69,0,2.69.32-.12.33-.35.36a1.25,1.25,0,0,0-.67.45c-.31.38-.34.62-.39,3.77-.07,3.87.05,4.68.78,5.35,1.31,1.22,4,.88,4.81-.59.49-.93.61-2.08.56-5.13-.07-3.22-.18-3.62-1-3.8-.26-.06-.41-.19-.41-.36s.15-.26,2.15-.26,2.15,0,2.15.28-.19.34-.47.44a1.36,1.36,0,0,0-.59.42c-.07.13-.16,2-.22,4.13l-.09,3.9-.49.85a4.21,4.21,0,0,1-2.67,2,10.78,10.78,0,0,1-4.12,0Zm50.41,0c-.63-.25-1.39-1.1-2.56-2.89-1.52-2.3-1.69-2.51-2.08-2.51s-.36,0-.36,1.8c0,2.15.2,2.75,1,2.89.38.07.48.16.48.43v.34h-5.41v-.34c0-.27.1-.36.48-.43.91-.16,1-.55.92-5.56l-.05-4.43-.38-.37a1.36,1.36,0,0,0-.68-.37.26.26,0,0,1-.29-.27c0-.24.16-.29,1.17-.38.65-.06,2.42-.07,3.94,0,2.48,0,2.85.08,3.44.37a2.85,2.85,0,0,1,1.64,2.71,3.33,3.33,0,0,1-2.1,2.9c-.43.22-.71.45-.62.5a19.13,19.13,0,0,1,1.56,2c1.52,2,2.35,3,2.7,3s.28.66,0,.77a6.88,6.88,0,0,1-2.7-.12l0,0Zm-2.94-6.76a2.7,2.7,0,0,0,1.37-1.57,2.45,2.45,0,0,0-.81-2.18,2.38,2.38,0,0,0-2-.51l-.57.06v4.42h.8a3.67,3.67,0,0,0,1.26-.21Zm70.88,6.73a7.12,7.12,0,0,1-.93-.26,10.62,10.62,0,0,1-.25-1.43l-.2-1.37h.45c.25,0,.45.05.45.11,0,.38,1,1.48,1.65,1.74,1.64.72,3.6,0,3.6-1.23,0-.83-.45-1.33-2-2.19-2.16-1.22-3-1.86-3.42-2.65a3.77,3.77,0,0,1-.18-2.86,4.15,4.15,0,0,1,2.06-1.78,10.49,10.49,0,0,1,4.6,0l.83.26v2.57h-.46c-.35,0-.48-.08-.56-.36a2.69,2.69,0,0,0-1.73-1.51c-1.9-.46-3.44,1.3-2.24,2.59a19.68,19.68,0,0,0,2.31,1.61c2,1.23,2.76,1.91,3,2.7.55,1.78-.37,3.37-2.34,4a10.54,10.54,0,0,1-4.66.07l0,0Zm-208.62-.3c0-.25.09-.33.39-.33a1.05,1.05,0,0,0,.71-.38c.32-.36.33-.54.33-4.89a25.15,25.15,0,0,0-.19-4.83,1.23,1.23,0,0,0-1-.67c-.19,0-.28-.12-.28-.37V130h9.56v3l-.42,0c-.32,0-.47-.17-.6-.54-.33-.86-.85-1.08-2.74-1.14l-1.67,0v4.09l1.28-.07c1.39-.07,2.09-.38,2.18-.95,0-.23.16-.31.47-.31h.42v3.74h-.43c-.35,0-.44-.07-.44-.34,0-.64-.54-.88-2.09-.93l-1.42-.05v2c0,2.43,0,2.47,1.83,2.47s2.73-.41,3.2-1.4c.23-.5.78-.64,1-.25a6.56,6.56,0,0,1-.68,2.54l-.24.42-4.61,0-4.61,0v-.33Zm12.26,0c0-.26.11-.36.46-.43.84-.15.88-.36.93-5,0-4.81,0-5.24-.89-5.6-.36-.16-.51-.32-.52-.56V130l3.61.06c3.91.06,4.23.13,5.3.93a3.06,3.06,0,0,1,.67,4c-.68,1.15-1.88,1.75-3.77,1.92l-1,.1-.24-.55-.26-.55.58-.08a3.23,3.23,0,0,0,2-1.05,1.53,1.53,0,0,0,.33-1.15,2.31,2.31,0,0,0-2.42-2.37l-.86-.06,0,4.8c.05,5.23.08,5.38,1,5.55.32.06.43.17.43.43v.34H696v-.34Zm26.43,0c0-.23.1-.33.3-.33a1.48,1.48,0,0,0,.68-.27l.37-.28,0-4.45c.06-5,0-5.36-.93-5.68-.29-.09-.48-.26-.48-.41s.21-.27,2.43-.3c4.63-.07,5.62,0,6.38.31a2.26,2.26,0,0,1,1.51,2.06,4.9,4.9,0,0,1-.05,1.17,3.1,3.1,0,0,1-1.72,1.6l-.77.32.65.17a3.1,3.1,0,0,1,2.3,3.42,3.06,3.06,0,0,1-2.25,2.65c-.77.31-1,.33-4.65.33h-3.82v-.31Zm7-1.09a2,2,0,0,0,1-2.16c-.14-1.5-1.31-2.4-3.15-2.4h-1l0,2.17c0,2.08.07,2.18.42,2.45a2.84,2.84,0,0,0,2.58-.06Zm-.66-6a1.78,1.78,0,0,0,1.39-1.86c-.14-1.13-1.15-1.76-2.82-1.76h-1V135h.84a5.83,5.83,0,0,0,1.53-.26Zm6.52,7.06c0-.23.11-.32.42-.36a1.33,1.33,0,0,0,.76-.45c.32-.39.33-.56.33-4.81,0-3.53,0-4.48-.22-4.77a1.3,1.3,0,0,0-1-.71c-.18,0-.28-.12-.28-.34s0-.33,2.86-.33,2.86,0,2.86.32-.1.31-.31.31a1.7,1.7,0,0,0-.76.34l-.4.38,0,4.53-.05,4.52.41.24a2.87,2.87,0,0,0,1.64.17c1.51-.08,2.23-.42,2.65-1.27.27-.56.58-.69,1-.46.14.09.12.35-.13,1.24a6.66,6.66,0,0,1-.56,1.47l-.26.34-4.45-.05-4.45,0v-.26Zm11.14,0c0-.27.11-.36.49-.43.88-.16.94-.55.94-5.37,0-4,0-4.31-.31-4.74a1.46,1.46,0,0,0-.71-.56c-.28-.05-.41-.18-.41-.39s0-.3,2.71-.3,2.7,0,2.7.31-.13.34-.39.41a1.25,1.25,0,0,0-.67.48c-.26.36-.29.83-.29,4.78,0,4.88.07,5.27.89,5.43.34.06.45.17.45.43v.34h-5.41v-.39Zm38.06,0c0-.23.12-.34.49-.4.87-.16.94-.55.94-5.38,0-4.24,0-4.31-.36-4.79a1.48,1.48,0,0,0-.72-.53c-.25,0-.35-.14-.35-.4V130H794v1.51c0,1.49,0,1.51-.39,1.51s-.41-.09-.49-.5c-.19-.85-.83-1.14-2.74-1.2l-1.6-.06-.11.69a19.23,19.23,0,0,0-.11,2v1.36l1.35-.08c1.49-.09,2.08-.33,2.24-.9a.42.42,0,0,1,.47-.37H793v3.73h-.39c-.27,0-.41-.08-.41-.25,0-.72-.78-1-2.38-1h-1.31l.05,2c.07,2.44.06,2.43,2,2.43,1.68,0,2.56-.36,3-1.25.23-.46.4-.62.66-.62a.61.61,0,0,1,.46.16,7.2,7.2,0,0,1-.85,2.8c-.19.17-1,.19-4.75.17l-4.52,0v-.31l.07,0Zm17.52,0c0-.24.15-.4.5-.54a2.71,2.71,0,0,0,.84-.61c.32-.4.32-.57.32-5.83,0-6.09,0-6.16-1.12-6.48-.43-.14-.57-.25-.57-.53v-.35h11.14v3.6h-.48c-.39,0-.49-.07-.49-.33a2,2,0,0,0-1.24-1.51,9.36,9.36,0,0,0-2.37-.3l-1.8-.06v4.92h1.31c1.76,0,2.35-.21,2.73-.89.24-.45.37-.55.75-.55h.47v4.33l-.51-.06c-.35,0-.54-.14-.59-.34-.26-.85-1.23-1.23-3.17-1.23h-1l.07,2.56c.07,2.9.2,3.33,1.16,3.63.42.13.55.27.55.51v.33h-6.52v-.33l0,.07Zm25.48,0c0-.26.08-.36.31-.36.48,0,1-.9,2.25-3.62,1.62-3.66,3.15-7.38,3.15-7.65s.17-.23.76-.22h.75l2.15,5c2.33,5.39,2.76,6.23,3.3,6.45a.5.5,0,0,1,.35.46c0,.33,0,.33-2.71.33h-2.71v-.34c0-.26.11-.36.47-.43.69-.12.73-.54.21-2l-.46-1.22h-3.76l-.38,1c-.49,1.26-.46,2.13.07,2.21.25,0,.35.14.35.39v.35h-4.14v-.35Zm7.32-5a21.6,21.6,0,0,0-1.27-3.09c-.07,0-.23.27-.36.61l-.68,1.59-.4,1h1.35a6.5,6.5,0,0,0,1.35-.07Zm6.85,5c0-.25.11-.35.43-.42.86-.16.89-.35,1-5.05s0-5.25-.93-5.56c-.28-.09-.49-.26-.49-.42s.18-.25,1.8-.25h1.78l1,1.19c.56.66,2,2.25,3.26,3.56.87.93,1.74,1.87,2.59,2.81l.36.44-.05-3.25c-.06-3.53-.15-3.9-1-4.09-.25-.06-.4-.2-.4-.37s.15-.28,2.14-.28,2.15,0,2.15.29-.14.3-.36.33a1.38,1.38,0,0,0-.67.46c-.32.39-.34.59-.39,5.71L854,142.3h-.7c-.63,0-.75-.05-1.22-.6s-7.18-8-7.43-8.3a33.68,33.68,0,0,0,0,3.52c.06,4,.17,4.49.93,4.63.35.07.45.16.45.42v.34H841.7V142l.09-.09Zm27.86,0c0-.21.08-.36.22-.36.31,0,.9-.66,1.32-1.52.58-1.16,3.3-7.51,3.78-8.79l.43-1.19,1.43.11,2.1,4.89c1.16,2.69,2.24,5.12,2.4,5.39.35.64.88,1.15,1.15,1.15s.21.16.21.37v.36h-5.42v-.36c0-.25.08-.36.29-.36.76,0,.83-.6.25-2.18l-.42-1.11h-3.73l-.34,1c-.63,1.83-.61,2.34.15,2.34.22,0,.3.1.3.36v.37h-4.14v-.37l0-.07Zm6.76-6.43c-.31-.81-.59-1.57-.65-1.69s-.38.42-.79,1.38-.7,1.63-.7,1.68a3.66,3.66,0,0,0,1.33.12h1.34l-.56-1.46,0,0Zm7.26,6.44c0-.28.08-.35.36-.35a1.09,1.09,0,0,0,.67-.31c.27-.27.3-.61.34-4.77,0-2.46,0-4.62,0-4.79a1.44,1.44,0,0,0-1.07-.9c-.2,0-.29-.11-.29-.32s0-.31,2.7-.31,2.71,0,2.71.29-.18.36-.48.47a1.33,1.33,0,0,0-.62.57,41.52,41.52,0,0,0-.21,7.46c.09,1.69.16,2.09.42,2.34a1,1,0,0,0,.59.3c.2,0,.28.11.28.37v.37h-5.41v-.37Zm17.82,0c0-.25.1-.32.39-.32a1.09,1.09,0,0,0,.72-.38c.31-.37.32-.54.32-4.9a24.41,24.41,0,0,0-.19-4.83,1.28,1.28,0,0,0-1-.66c-.18,0-.28-.12-.28-.37V130H911v3l-.42,0c-.31,0-.46-.15-.59-.53-.31-.85-.84-1.08-2.74-1.14l-1.67-.05v4.05h1c1.37,0,2-.23,2.34-.81.18-.34.34-.46.64-.46H910v3.73h-.41c-.36,0-.44-.06-.44-.34,0-.64-.53-.87-2.09-.93l-1.42-.05v2c0,2.43,0,2.47,1.85,2.47s2.72-.41,3.19-1.4c.23-.5.79-.64,1-.25a6.7,6.7,0,0,1-.67,2.54l-.25.42-4.61,0-4.61,0v-.4ZM688.16,128.73l-.39-.27,1-1.3a4.86,4.86,0,0,1,1.17-1.31,7.86,7.86,0,0,1,2.21.43,30.58,30.58,0,0,1-3.39,2.74,1.55,1.55,0,0,1-.55-.28Zm-20.23-9.93H910.46v1.29H667.92v-1.3Zm92.3-3a2.3,2.3,0,0,1-1.75-2.63,2.25,2.25,0,0,1,1.51-1.67l.75-.31-.46-.24c-.25-.14-.46-.36-.46-.52a3.38,3.38,0,0,1,1.46-1.31c.07,0,0-.24-.22-.53a2.69,2.69,0,0,1,1.37-3.76c.82-.38,1.1-.4,4-.23,1.66.09,1.73.11,1.63.4s-.08.36-.09.42-.27.11-.62.11h-.63l.09.83c.19,1.82-1.26,3.07-3.58,3.1-1.2,0-1.78.25-1.31.53.14.07.92.33,1.73.57,2.64.77,3.13,1.16,3,2.39a3.58,3.58,0,0,1-2.91,2.86,7.81,7.81,0,0,1-3.47,0Zm3.55-.88c1.29-.58,1.85-1.69,1.15-2.27a7.16,7.16,0,0,0-3.09-.89c-1.09.2-2.11,1.4-1.92,2.26.25,1.2,2.19,1.64,3.85.9Zm.43-6.51a2,2,0,0,0,.7-2.79c-.89-1-2.59.11-2.6,1.75a1,1,0,0,0,.44,1,1.09,1.09,0,0,0,1.48.08Zm6,3.34a1.31,1.31,0,0,1-1.15-1.3c-.2-1.91,1.58-4.71,3.58-5.62a7.51,7.51,0,0,1,4.45-.1c.12,0,0,.53-.29,1.54-.6,2-1,4-.77,4.29s.23.24.67.11.52-.12.63,0c.23.33.09.45-.82.73-1.22.38-1.78.3-2-.26l-.14-.44-.64.32a6.29,6.29,0,0,1-3.51.68Zm2.75-1.29a3.53,3.53,0,0,0,1.08-.68,21.14,21.14,0,0,0,1.12-3.71c.11-.51.09-.53-.49-.67-1.06-.28-2.14.43-3,2s-1.12,3-.54,3.39c.4.26.65.21,1.85-.3Zm75.4,1.25a1.27,1.27,0,0,1-1.16-1c-.3-1,.39-2.87,1.57-4.26a5.15,5.15,0,0,1,5.24-1.9,5,5,0,0,1,1.2.26,7.93,7.93,0,0,1-.44,2,16,16,0,0,0-.58,2.87l0,.94.67,0c.61,0,.68,0,.68.3s-.15.36-.92.57c-1.25.36-1.85.28-1.91-.23a.91.91,0,0,0-.11-.4s-.45.16-.92.34a10.72,10.72,0,0,1-2.61.66c-.06,0-.34-.07-.63-.12Zm2.67-1.23a5.43,5.43,0,0,0,1-.59,12.8,12.8,0,0,0,1.32-3.89c.09-.44.07-.47-.54-.61a1.53,1.53,0,0,0-1.19.07c-1,.44-2,1.9-2.53,3.71s.12,2.14,2,1.3Zm-172.7.9a17.48,17.48,0,0,1,.63-3c.78-2.87.78-3.1-.08-2.88-.42.11-.46.08-.46-.21s.15-.37.92-.57a10.46,10.46,0,0,1,1.47-.28c.52,0,.56,0,.61.45a17.85,17.85,0,0,1-.61,2.92,14,14,0,0,0-.57,2.66c.08.18.24.2.82.13s.73-.09.68.22-.24.38-.93.58a7.6,7.6,0,0,1-1.63.25c-.65,0-.76,0-.84-.32Zm6.12.06-.36-.27,1.24-4.89c.67-2.7,1.21-5.08,1.18-5.31,0-.42-.1-.44-.72-.27-.3.08-.36,0-.36-.26s.57-.63,2.12-.76c.89-.08.92-.08.92.26a25.79,25.79,0,0,1-.55,2.63c-.31,1.25-.56,2.36-.56,2.46s.18.12.69-.09c1.78-.7,3.32-.66,3.88.09s.26,2.57-.59,4.09a6.81,6.81,0,0,1-2.45,2.31c-.93.38-3.87.4-4.4,0Zm4-.91a6.26,6.26,0,0,0,1.94-3.76c.26-1.53-.86-1.83-2.64-.72a2.18,2.18,0,0,0-.84,1,21,21,0,0,0-.87,3.4c0,.61,1.55.68,2.43.11Zm6.08.73c-.43-.4-.45-.52-.45-1.48a5.37,5.37,0,0,1,3.65-5.19,2.9,2.9,0,0,1,2.6.28c.37.28.43.45.43,1,0,1.48-1.48,2.6-3.64,2.73a3.39,3.39,0,0,0-1.24.23,1.94,1.94,0,0,0,.07,1.43c.41.68,1,.7,2.33.07.85-.4,1-.44,1.16-.25.29.4.15.52-1.08,1a4.76,4.76,0,0,1-2.27.52c-.95,0-1.08,0-1.52-.44Zm2.86-3.45c1.37-.34,2.26-1.65,1.57-2.28-.43-.39-.84-.38-1.41,0a5.7,5.7,0,0,0-1.38,2.06c-.08.26,0,.31.27.31a5.76,5.76,0,0,0,1-.16Zm5.37,3.84s.28-1.14.63-2.48a20.65,20.65,0,0,0,.65-3.06v-.63l-.63.1c-.57.07-.64.05-.64-.2s.52-.56,1.81-.85c.89-.19,1.23-.06,1.23.5v.34l.56-.35a2.34,2.34,0,0,1,2.32-.42c.36.15.61.33.59.42-.44,1.38-.68,1.81-1,1.81s-.36-.07-.36-.49c0-1-1-1-1.74,0a12.66,12.66,0,0,0-1.3,4.07,2.72,2.72,0,0,1-.36,1.1,10.47,10.47,0,0,1-1.69.17Zm8-.14c-.18-.18-.08-.71.83-4.45l.38-1.54h-.54c-.29,0-.54,0-.54-.08,0-.22.37-.64.56-.64.39,0,1.13-.68,1.45-1.32s.49-.83,1-.83c.35,0,.38,0,.29.47-.06.27-.15.72-.2,1l-.1.54h.74c.76,0,.87.12.65.64-.07.17-.31.24-.85.24-.89,0-.74-.29-1.44,2.86-.52,2.32-.49,2.53.37,2.3s.79-.17.73.2-.24.38-.85.56a3.62,3.62,0,0,1-2.44.08Zm6.43-.18c-1.16-1.13-.32-4.36,1.54-5.86a5,5,0,0,1,2.71-1.09,3.17,3.17,0,0,1,1.74.73,2.32,2.32,0,0,1-.15,2,4.45,4.45,0,0,1-3.69,1.64h-.94v.76c0,1.48.69,1.72,2.47.94a4.06,4.06,0,0,1,1.11-.39,1.06,1.06,0,0,1,.13.35c0,.24-.17.39-1.12.82a4.1,4.1,0,0,1-2.27.54c-1,0-1.15,0-1.49-.37l0,0Zm2.81-3.52a2.55,2.55,0,0,0,1.68-1.24c.22-.46.22-.54-.07-.88-.43-.52-.86-.54-1.52,0a5.12,5.12,0,0,0-1.37,2.14C718.79,108.08,719.39,108.07,720.07,107.86Zm59.81,3.81c-.22-.2-.08-1,.69-4,1-4,1.59-6.34,1.59-6.71s-.07-.31-.56-.23-.55.06-.55-.26.41-.52,2-.8c.83-.13,1.06,0,1.06.43,0,.23-.53,2.49-1.19,5.06s-1.2,4.88-1.2,5.14v.48l.73-.08c.68-.07.73-.06.67.24s-.24.38-.92.56a4.44,4.44,0,0,1-2.28.17Zm6-.08c-.19-.29-.08-.91.59-3.31a16.22,16.22,0,0,0,.6-2.52c-.07-.24-.11-.26-.8-.11-.36.08-.44,0-.44-.2s.68-.64,1.92-.86c.89-.15,1.27-.07,1.27.26,0,.12-.32,1.44-.71,2.93a15.74,15.74,0,0,0-.61,2.87c.07.09.38.11.81.06.67-.08.71-.06.66.24s-.24.38-.93.56c-1,.3-2.16.34-2.32.09Zm5.88-.07a2.77,2.77,0,0,1,.09-1c.37-1.44,1.14-4.76,1.14-4.83s-.22-.06-.49-.06c-.69,0-.55-.41.26-.79a2.43,2.43,0,0,0,1.16-1.19c.46-.77.59-.89,1-.89h.45l-.22.9c-.12.5-.22.94-.22,1a1.77,1.77,0,0,0,.8.1c.84,0,.86,0,.7.54-.08.29-.2.33-.92.33h-.82l-.54,2.42a14.27,14.27,0,0,0-.44,2.65c.08.19.2.21.62.1.73-.19.77-.17.77.21s-.14.37-.93.57c-1.23.32-2.23.32-2.36,0Zm6.57-.08c-.39-.3-.47-.47-.53-1.28a5.72,5.72,0,0,1,2.16-4.79c1.51-1,3.15-1.16,4.07-.34.43.39.47.5.39,1.15-.15,1.43-1.66,2.46-3.73,2.55-1.3.07-1.43.21-1.18,1.22s.79,1.22,2.38.54c1.05-.45,1.29-.45,1.29,0s-1.9,1.2-3.28,1.27c-1,0-1.17,0-1.57-.3v0Zm3.37-3.84c1-.46,1.43-1.47.86-2s-2,.22-2.68,1.9l-.23.61.71-.09a5.64,5.64,0,0,0,1.35-.38Zm38.07,4.12s.28-1.14.63-2.47a22.14,22.14,0,0,0,.65-3.07v-.62l-.63.09c-.57.08-.64.06-.64-.2s.29-.48,1.58-.78c1.12-.27,1.46-.16,1.46.44v.34l.56-.34a2.37,2.37,0,0,1,2.32-.43,1.79,1.79,0,0,1,.62.34,6,6,0,0,1-.35,1c-.29.75-.41.9-.71.9s-.37-.08-.37-.48c0-1-.93-1.06-1.63-.13a8.69,8.69,0,0,0-1.24,3.49,11.59,11.59,0,0,1-.44,1.74,6.79,6.79,0,0,1-1.77.22l0,0Zm18.37-.17c-.12-.3,0-1.19.63-3.73l.53-2.16-.45,0c-.52-.05-.62-.52-.12-.67a2.73,2.73,0,0,0,1.53-1.38c.35-.71.48-.83,1-.83.35,0,.37.05.28.47,0,.26-.15.72-.2,1l-.1.54H862c.76,0,.87.12.65.64-.07.17-.31.23-.85.23-.87,0-.74-.28-1.44,2.87-.51,2.32-.49,2.53.38,2.3s.78-.17.73.2-.25.38-.85.56c-1.06.33-2.28.34-2.42,0Zm6.43-.15c-1.2-1.08-.36-4.34,1.51-5.86a5.07,5.07,0,0,1,2.71-1.08,3.1,3.1,0,0,1,1.74.73,2.32,2.32,0,0,1-.15,2,4.44,4.44,0,0,1-3.71,1.64h-.94l.08.89c.12,1.4.69,1.59,2.43.81a4,4,0,0,1,1.1-.39.79.79,0,0,1,.14.35c0,.23-.18.39-1.12.82a4.13,4.13,0,0,1-2.24.54c-.93,0-1.12,0-1.48-.37Zm3.35-3.74c1.12-.5,1.61-1.65.91-2.13-.46-.31-.79-.26-1.4.22a5.11,5.11,0,0,0-1.37,2.16c0,.24,1.09.09,1.84-.25Zm4.84,4c0-.07.29-1.23.65-2.59a17.37,17.37,0,0,0,.6-2.94c0-.41-.08-.44-.63-.41s-.6,0-.66-.25.08-.33.74-.55a11.42,11.42,0,0,1,1.42-.38c.62-.11.6-.12,1,.73,0,0,.43-.17,1-.4,1.1-.5,1.28-.53,1.95-.15l.51.28-.33.92c-.29.79-.41.95-.7.95s-.37-.08-.37-.47c0-1.26-1.32-1-2,.38a16.65,16.65,0,0,0-.8,2.66c-.26,1.13-.5,2.06-.53,2.08a5.19,5.19,0,0,1-1.72.11l0,0Zm8,0c0-.07.25-1,.58-2.12a14.76,14.76,0,0,0,.59-3l0-1-.57.06c-.44,0-.59,0-.65-.23s.07-.31.73-.49c1.45-.41,1.78-.44,2.07-.18a.9.9,0,0,1,.25.58c0,.18,0,.34.07.34s.5-.2,1-.43c1.28-.55,3-.84,3.49-.59.33.16.35.24.26.9-.07.4-.32,1.51-.58,2.46s-.48,2-.51,2.24c0,.5,0,.5.62.48.46,0,.7.06.75.2.13.3,0,.39-1,.65s-2.19.31-2.31,0a15.79,15.79,0,0,1,.54-2.78c.7-2.83.74-3.15.41-3.26a4.18,4.18,0,0,0-2.3,1c-.6.48-.67.64-1.05,2-.21.85-.44,1.85-.51,2.23s-.2.72-.3.74a4.34,4.34,0,0,1-1.7.09l.06.06Zm10.92-.11a16.91,16.91,0,0,1,.64-3,16.83,16.83,0,0,0,.64-2.91c0-.15-.2-.16-.6-.06q-.29.09-.57.15a1,1,0,0,1,0-.33c0-.27.15-.37.84-.55,1.88-.51,2.46-.42,2.27.34,0,.2-.37,1.44-.72,2.78a15.2,15.2,0,0,0-.56,2.64c.07.16.27.19.83.12s.71-.07.67.23c-.11.62-3.16,1.15-3.38.6l0,0Zm6,0c-.11-.25,0-.93.64-3.43.69-2.76.69-2.51.11-2.51s-.58-.39.23-.77a2.41,2.41,0,0,0,1.13-1.15c.42-.7.6-.87,1-.91s.48,0,.15,1.54l-.1.47h.84c.7,0,.82,0,.74.22a1.27,1.27,0,0,0-.09.43c0,.16-.22.21-.85.21h-.85l-.53,2.42a15.52,15.52,0,0,0-.42,2.66c.08.19.2.21.64.1.72-.18.76-.17.76.21s-.13.38-.93.58c-1.21.31-2.22.31-2.36,0Zm6.55-.1c-.44-.36-.46-.4-.46-1.78a3.65,3.65,0,0,1,.61-2.52,4.6,4.6,0,0,1,2.82-2.4c2.26-.76,3.88.53,2.88,2.3a4.21,4.21,0,0,1-3.6,1.73c-.91,0-1,0-1.08.38a1.86,1.86,0,0,0,.35,1.53c.37.38,1,.31,2.11-.21.83-.38,1-.42,1.13-.25.28.41.15.56-.92,1a5.21,5.21,0,0,1-2.19.52c-1,.06-1.18,0-1.59-.3Zm3.48-3.88c1.08-.53,1.44-1.61.69-2a.89.89,0,0,0-.84-.09,3.59,3.59,0,0,0-1.68,2l-.26.68.74-.09a4.55,4.55,0,0,0,1.37-.42Zm-240.85,3.78a.44.44,0,0,1,.36-.3,1.78,1.78,0,0,0,1.2-1.11,50.45,50.45,0,0,0,1.78-8.1c0-1.06,0-1.07-.48-1.36-1-.56-.72-.65,2-.65,2.19,0,2.55,0,2.55.22s-.2.26-.48.31c-1,.19-1.4,1.09-2.36,5.54-.89,4.16-.89,4.08-.49,4.45s.47.3,1.71.25c1.68-.08,2.28-.33,2.86-1.21.46-.68.49-.69.81-.51s.18.25,0,.83a7.18,7.18,0,0,1-.62,1.28l-.36.57-4.26,0c-4,0-4.27,0-4.21-.22Zm80.54,0c0-.12.27-.32.61-.47a1.85,1.85,0,0,0,.94-.91,46,46,0,0,0,1.87-8.26c0-1,0-1-.49-1.29-1.07-.62-.82-.65,4-.65,4.45,0,4.55,0,4.45.28a12.87,12.87,0,0,0-.29,1.26c-.17.82-.25,1-.54,1s-.35,0-.35-.34c0-1-.62-1.23-2.86-1.23h-1.54l-.43,1.83-.51,2.08c-.07.22.06.25,1.33.25,1.59,0,2.06-.16,2.52-.83s1-.64.84-.08l-.37,1.72c-.21,1-.33,1.32-.54,1.32s-.29-.16-.36-.43a.91.91,0,0,0-.46-.6,8.9,8.9,0,0,0-3.06-.11,22,22,0,0,0-.78,3.46c-.1.61-.07.69.3.91s.68.22,1.8.19c1.66-.08,2.25-.32,2.94-1.2.29-.37.58-.6.7-.55.31.11.28.37-.19,1.38-.7,1.5-.31,1.4-5.19,1.4-3.58,0-4.28,0-4.28-.21Zm80.91,0c0-.11.24-.28.52-.37,1-.31,1.35-1.13,2.35-5.78.86-4,.85-4.64-.16-4.93-.18-.06-.3-.17-.26-.27s1.3-.17,4.49-.2c4.35,0,4.43,0,4.32.24s-.19.72-.3,1.25c-.16.83-.24,1-.54,1s-.35,0-.35-.4c0-.92-.77-1.21-2.94-1.14l-1.25,0-.45,1.86c-.24,1-.44,2-.44,2,0,.26,2.42.23,3,0a1.53,1.53,0,0,0,.65-.66.66.66,0,0,1,.5-.44c.38,0,.38-.1,0,1.83-.28,1.36-.39,1.62-.63,1.62a.26.26,0,0,1-.29-.26c0-.67-1.48-1.18-2.86-1l-.6.1-.33,1.61c-.56,2.82-.54,3.08.33,3.4s.4.48-2.15.52c-2.09,0-2.49,0-2.49-.17l-.08.1Zm-93.42-3.09a2.13,2.13,0,0,1,1-4.09,2.13,2.13,0,0,1,2.41,2.15c0,1.69-1.7,2.66-3.44,2Zm81.06.07a2.86,2.86,0,0,1-.94-.74,1.56,1.56,0,0,1-.43-1.28,2.12,2.12,0,0,1,2.39-2.13,1.92,1.92,0,0,1,1.45.43,2,2,0,0,1,.41,3.08,2.57,2.57,0,0,1-2.85.64Zm-95.21-5.11c-.31-.31-.34-.28,1.47-2.14l.61-.63.9.18a2.88,2.88,0,0,1,.91.28,40.75,40.75,0,0,1-3.54,2.59,1.19,1.19,0,0,1-.37-.28Zm81,0-.35-.26,1.2-1.24a9,9,0,0,1,1.33-1.23,5.54,5.54,0,0,1,1.73.44c0,.09-3,2.25-3.39,2.46-.09,0-.32,0-.51-.17Zm105.86,0-.38-.26,1.24-1.24a10.35,10.35,0,0,1,1.38-1.23,7.09,7.09,0,0,1,1.73.41c0,.08-3,2.27-3.39,2.48-.1.06-.35,0-.56-.16Zm-227.27-.74c-.64-.58,0-1.71,1-1.71.68,0,1,.32,1,.94a1.18,1.18,0,0,1-2,.77Zm107.47.1a1.11,1.11,0,0,1,0-1.52c.66-.59,1.91-.2,1.91.6a1.29,1.29,0,0,1-1.94.94Zm105.77-.1c-.67-.59,0-1.71,1-1.71a.93.93,0,0,1,.7,1.66,1.28,1.28,0,0,1-1.7.05ZM754,98.43c-.25-.24-.19-.33,1-1.46l1.23-1.2.91.19a2.76,2.76,0,0,1,.9.28,28.45,28.45,0,0,1-3.49,2.42.58.58,0,0,1-.51-.2Z"/><path class="cls-1" d="M807,90.33l.37-.86a18.06,18.06,0,0,1,2.23-4.08,15.31,15.31,0,0,1,4.11-3.82,9,9,0,0,1,4.24-.52c1.49.12,6,.79,7.88,1.17a12.15,12.15,0,0,0,4.41,0,4.46,4.46,0,0,0,3.48-3,3.73,3.73,0,0,0,0-3c-.54-1-.45-1.23.88-2.37a9.16,9.16,0,0,0,1.2-1.17,4.34,4.34,0,0,0-1.15-1.93,1.36,1.36,0,0,1-.63-.28l-.38-.27.78-.37c1.08-.5,1.87-1.27,1.87-1.82a3.43,3.43,0,0,0-.51-1.28,2.44,2.44,0,0,1-.38-2.28c.19-.34.54-.48,2.22-.91,1.4-.37,1.91-.75,2.11-1.56a2.41,2.41,0,0,0-.37-2c-.38-.68-2.84-4.07-3.54-4.89a15.5,15.5,0,0,1-2.47-4.07,3.27,3.27,0,0,1-.09-2.39c.53-2.79.22-5.09-1.28-9.58a37.53,37.53,0,0,0-1.75-4.79c-.64-1.13-.56-1.39.74-2.34a8.46,8.46,0,0,0,1.27-1.09,1.9,1.9,0,0,0-.79-2.28c-.47-.22-.73-.06-1.2.72-.36.6-.51.71-.89.71q-.95,0-.33-.72c.45-.58.43-.67-.31-.76-.56-.06-.84-.26-2-1.36a14,14,0,0,0-4.8-3c-1-.4-1.32-.6-1-.55s1.39.12,2.41.18c3,.13,3.67-.23,4.36-2.15.46-1.31.68-1.91-.39-2.83l-3.86-3.24h88.35V90.33Z"/><path class="cls-1" d="M731.65,90.33a11.53,11.53,0,0,1-1.23-.12c-.07-.06.65-.48,4-2.3,1.07-.59,1.5-.9,1.36-1a14.45,14.45,0,0,0-2.07-.21,5.22,5.22,0,0,0-2.38.13c-.31.12-1.5.45-2.66.72-2.89.69-3.84,1.15-4.77,2.31l-.35.44H666.83V15.61H779.32l-2.18,1.28a22.36,22.36,0,0,0-3.1,1.66,16.68,16.68,0,0,0-4.59,5.77,2,2,0,0,1-1.05,1.2,12.58,12.58,0,0,0-3.17,3.1,62.63,62.63,0,0,0-4.38,7c-.79,1.75-.72,3.07.43,8.28.5,2.3,1,4.63,1.2,5.18a13,13,0,0,1,.39,2.08,5.06,5.06,0,0,0,.86,2.59,3,3,0,0,1,.34.9.58.58,0,0,0,.31.43.67.67,0,0,1,.31.54c0,.25.36.72,1.16,1.51,1.82,1.81,3.14,3.5,3.14,4s-.71.55-1.87.29A9.08,9.08,0,0,1,763,59c-.72-.64-1.3-1.06-1.3-1a5.77,5.77,0,0,0,1.09,1.31c1.2,1.21,1.39,1.54,1.13,2s-.78.49-1.54.31-1.37.08-1.24.73c.08.4.07.44-.19.36a13.88,13.88,0,0,0-2.52-.46c-.89-.07-1-.11-1.48-.78a2.06,2.06,0,0,0-1.15-.85,77,77,0,0,0-8.14-1.28c-4.64-.46-5.76-.5-8-.25a8.08,8.08,0,0,0-3.1.72C734.87,60.6,732,63,732,63.59c0,.29.63.2,1.35-.21,2.18-1.21,9.69-2.94,13.38-3.07,1.82-.07,1.72,0-.48.38-.6.1-2,.43-3.18.74s-3.13.79-4.39,1.06-2.72.62-3.19.77l-.88.29,1.35,0c6.91.06,14.76,2,18,4.51,1.37,1.06,1.87,1.19,3.89,1a18.69,18.69,0,0,0,7.95-2.64c.69-.51,1.24-.72,1.24-.44a15.09,15.09,0,0,1-1.3,3.61c-.43.7-.45.8-.22,1s.21.21.16.25.05.13.24.19c.53.15.39.3-.45.48S764,72,764,72.22c0,.07.11.14.24.14.41,0,.11.26-.43.37-.37.07-.43.13-.27.22s.16.13,0,.13-.2.14-.2.33-.16.38-.48.51c-.8.32-.58.49.51.4.55,0,.89,0,.75,0s-1,.41-2,.81-2.22.88-2.79,1.06-1.05.42-1.09.58.24.23,1,0c.14,0,.26,0,.26,0a40.64,40.64,0,0,1-3.68,1.92A41.45,41.45,0,0,0,751.61,81a1.81,1.81,0,0,1-.84.47.66.66,0,0,0-.48.37c-.31.61-.26.69.48.57,1.09-.17,1.61-.15,1.67,0s-.06.18-.24.18a.78.78,0,0,0-.5.21,1,1,0,0,1-.6.25,1.14,1.14,0,0,0-.76.51,1.45,1.45,0,0,1-.63.54c-.18,0,.07,0,.55,0,7.16-.48,8.5-.72,11.39-2a27.32,27.32,0,0,0,6.83-4.49,6.59,6.59,0,0,1,1.08-.87c.25,0,.11.79-.25,1.51-.63,1.23-2,2.36-4.68,4a23.47,23.47,0,0,1-3.3,1.72,44.75,44.75,0,0,1-5.89,1.11c-7.55,1-10.43,1.73-13.29,3.45A3.49,3.49,0,0,1,741,89a1.57,1.57,0,0,0-.8.39c-.85.67-.23.55,1.55-.28s2.69-1,1.25-.19a9.68,9.68,0,0,1-4.43,1.58h-7l.08-.15ZM722.28,82c.29-.11,1.24-.59,2.11-1.07s1.9-1,2.3-1.16l2.47-1c2-.83,5-1.6,5.15-1.35a2.26,2.26,0,0,0,1,.21c.67,0,.79.08.52.17s-.36.17-.36.24c0,.26,1.49.19,2.11-.11a4.89,4.89,0,0,1,1.24-.3c.54-.07.79-.16.79-.3s.14-.2.62-.12c.67.11,2.11-.14,6-1a39.91,39.91,0,0,0,6.36-1.92l1.26-.53L752.56,73c-3.08-1.78-6.18-2.88-13-4.59a15.78,15.78,0,0,1-2.31-.7c-.11-.09-.06-.1.16,0,.68.22,1.19.26,1.19.09s-.51-.38-1.52-.51-1.51-.37-.87-.37c1,0-.72-.58-2.62-.86-1.42-.23-1.5-.28-.91-.54s1.07-1.07.92-1.41-.27-.27-1,.19A9.89,9.89,0,0,0,729,68.16c-.43.86-.28.94,1.94,1,1.84.07,1.86.08,1.39.3a4.74,4.74,0,0,1-1.17.33c-1.3.17-2,.73-1.36,1.06.19.09.12.17-.35.38s-.56.27-.31.39a2.63,2.63,0,0,0,1,.09,1.38,1.38,0,0,1,1.09.22l.35.28-.7.39a3.11,3.11,0,0,0-1,.87,9.3,9.3,0,0,1-1.18,1.33,3.92,3.92,0,0,0-.92,1.11,7,7,0,0,1-1.63,1.4c-2.42,1.74-3.47,2.71-3.47,3.17a.67.67,0,0,1-.38.6c-.75.45-1.14,1-.73,1a3.59,3.59,0,0,0,.69-.2Zm18.63-1.68a5.85,5.85,0,0,0,1.54-.37l.45-.24-.77-.35-.77-.34-.77.28-1.29.46c-1.18.4-1.33.94-.23.79l1.84-.22Zm-27-6.54a55.33,55.33,0,0,1,9.23-7.33c1.08-.67,1.84-1.06,1.88-1,.1.27.57.19,1.32-.24s1.3-1,2.38-2.76a8.63,8.63,0,0,1,3.16-3.41c.77-.53,1.88-1.33,2.48-1.76.88-.63,1.08-.73,1-.48s0,.31.11.31a6.82,6.82,0,0,0,2.13-.82c.1-.26-1.63-.53-2.91-.45a5.37,5.37,0,0,0-2.55.75c-2.86,1.4-4.93,2.9-8.89,6.48a31.63,31.63,0,0,1-6.21,4.77c-.37.16-.65.5-1.1,1.31a43.86,43.86,0,0,1-3.89,5.74c-1.39,1.76-1.69,2.36-.61,1.23.83-.82,1.66-1.63,2.51-2.43Zm35.51,15.73a38.66,38.66,0,0,1,7.72-1c3.36-.13,3.79-.21,5.81-1.07.65-.27.9-.32,1-.19s1.26-.32,3.4-1.67c.87-.55,2.11-1.26,2.75-1.57,1-.48,1.25-.55,1.72-.48s.64,0,1.27-.47a7.64,7.64,0,0,1,4.73-2c.44,0,.59,0,.59.22s.09.21.24.15c.45-.15.25,0-.9.79-1.32.88-1.2,1.15.15.3s1.31-.81,1.31-.48c0,.18-.5.65-1.4,1.33a48.89,48.89,0,0,0-5.73,5l-2,1.92h-25.2l4.54-.82Zm0-29.27a1.32,1.32,0,0,1,.56,0c.15,0,0,.06-.28.06S749.35,60.28,749.5,60.24Z"/><path class="cls-1" d="M823.79,54.77c-.7-.09-.34-.33.5-.33s1.29-.29,1.29-.85c0-.26-.05-.3-.32-.22a.47.47,0,0,1-.55-.19,1.55,1.55,0,0,0-1-.37c-.91-.11-2.38-.9-2.12-1.14a3,3,0,0,1,1-.22c.84-.06.89-.09,1-.55a.8.8,0,0,1,.61-.57,2.17,2.17,0,0,0,.82-.43c.23-.18.94-.65,1.59-1,1.11-.66,1.8-1.35,1.55-1.57a11.36,11.36,0,0,0-3.77-.41,23.45,23.45,0,0,0-4.49.85c-1,.33-.69,0,.64-.66a19.05,19.05,0,0,1,7.15-1.86,14.07,14.07,0,0,1,3.52.74c.58.44,0,1.95-1.12,2.71l-.44.32.72.7-.37.28a1.51,1.51,0,0,1-.62.27,1.78,1.78,0,0,0-.77.45c-.43.38-.49.49-.37.8a.66.66,0,0,1,0,.64,1.86,1.86,0,0,0-.07,1.06c.13,1,0,1.29-.84,1.49a15.57,15.57,0,0,1-3.58,0l0,.05Z"/><text class="cls-2" transform="translate(957.22 103.91)">Ministère des Sports</text><path class="cls-1" d="M1612,4.1a1.2,1.2,0,1,0-1.19-1.19A1.19,1.19,0,0,0,1612,4.1"/><polygon class="cls-1" points="1612.03 39.68 1581.95 52.2 1642.11 52.2 1612.03 39.68"/><path class="cls-1" d="M1494.13,67.22a.39.39,0,0,1,.37-.38h.76a.38.38,0,0,1,.38.38v8.32a3.78,3.78,0,1,0,7.55,0V67.22a.38.38,0,0,1,.38-.38h.76a.39.39,0,0,1,.38.38v8.45a5.29,5.29,0,1,1-10.58,0Z"/><path class="cls-1" d="M1512.08,67a.38.38,0,0,1,.38-.36h.5l9,11.22h0V67.22a.38.38,0,0,1,.38-.38h.7a.39.39,0,0,1,.37.38V80.65a.37.37,0,0,1-.37.36h-.36l-9.17-11.44h0V80.43a.37.37,0,0,1-.38.38h-.69a.39.39,0,0,1-.38-.38Z"/><rect class="cls-1" x="1531" y="66.84" width="1.56" height="13.97" rx="0.38" ry="0.38"/><path class="cls-1" d="M1538.21,67.36a.36.36,0,0,1,.34-.52h.8a.37.37,0,0,1,.34.22l5,11.18h.08l5-11.18a.39.39,0,0,1,.34-.22h.8a.35.35,0,0,1,.34.52l-6.07,13.43a.36.36,0,0,1-.34.22h-.2a.39.39,0,0,1-.34-.22Z"/><path class="cls-1" d="M1556.84,67.22a.38.38,0,0,1,.38-.38h7.87a.38.38,0,0,1,.38.38v.58a.38.38,0,0,1-.38.38h-6.71v4.87h5.73a.39.39,0,0,1,.38.38V74a.38.38,0,0,1-.38.38h-5.73v5.09h6.71a.38.38,0,0,1,.38.38v.57a.37.37,0,0,1-.38.38h-7.87a.37.37,0,0,1-.38-.38Z"/><path class="cls-1" d="M1572.14,67.22a.38.38,0,0,1,.38-.38h5.17a4.29,4.29,0,0,1,4.35,4.25,4.44,4.44,0,0,1-3,4.07l2.74,5.08a.37.37,0,0,1-.34.57h-1a.34.34,0,0,1-.32-.18l-2.65-5.29h-3.82v5.1a.39.39,0,0,1-.37.37h-.78a.38.38,0,0,1-.38-.37Zm5.45,6.81a2.87,2.87,0,1,0,0-5.73h-3.88V74Z"/><path class="cls-1" d="M1587.91,78.72l.3-.38c.2-.26.42-.42.7-.18a5.52,5.52,0,0,0,3.37,1.52,2.41,2.41,0,0,0,2.68-2.2c0-1.38-1.2-2.19-3.49-3.15s-3.52-1.86-3.52-4.14c0-1.35,1.08-3.55,4.25-3.55a6.54,6.54,0,0,1,3.42,1,.45.45,0,0,1,.12.68l-.24.38a.45.45,0,0,1-.7.18,5.59,5.59,0,0,0-2.61-.92c-2.12,0-2.76,1.36-2.76,2.19,0,1.34,1,2.12,2.69,2.82,2.7,1.1,4.43,2.12,4.43,4.43,0,2.08-2,3.59-4.31,3.59A6.52,6.52,0,0,1,1588,79.4a.44.44,0,0,1-.12-.68"/><rect class="cls-1" x="1602.93" y="66.84" width="1.56" height="13.97" rx="0.38" ry="0.38"/><path class="cls-1" d="M1614,68.18h-3.48a.37.37,0,0,1-.37-.38v-.58a.37.37,0,0,1,.37-.38H1619a.38.38,0,0,1,.38.38v.58a.38.38,0,0,1-.38.38h-3.48V80.43a.39.39,0,0,1-.37.39h-.76a.4.4,0,0,1-.38-.39Z"/><path class="cls-1" d="M1625.05,67.22a.38.38,0,0,1,.38-.38h7.86a.38.38,0,0,1,.38.38v.58a.38.38,0,0,1-.38.38h-6.7v4.87h5.73a.39.39,0,0,1,.38.38V74a.38.38,0,0,1-.38.38h-5.73v5.09h6.7a.38.38,0,0,1,.38.38v.58a.38.38,0,0,1-.38.37h-7.86a.38.38,0,0,1-.38-.37Zm2.5-2.48a.29.29,0,0,1,.11-.38l3-1.67c.12-.08.42-.12.52.06l.36.72a.28.28,0,0,1-.12.41l-3.22,1.34c-.27.12-.38.12-.45,0Z"/><path class="cls-1" d="M1648.25,67.22a.38.38,0,0,1,.38-.38H1653a4.45,4.45,0,1,1,0,8.9h-3.29v4.69a.39.39,0,0,1-.38.38h-.76a.37.37,0,0,1-.38-.38Zm4.69,7a3.06,3.06,0,0,0,3-3.06,2.94,2.94,0,0,0-3-2.85h-3.17v5.91Z"/><path class="cls-1" d="M1661.11,80.29l6.07-13.43a.36.36,0,0,1,.34-.22h.2a.36.36,0,0,1,.34.22l6,13.43a.35.35,0,0,1-.34.52h-.8a.37.37,0,0,1-.34-.22l-1.48-3.29h-7.08l-1.46,3.29a.37.37,0,0,1-.34.22h-.8a.35.35,0,0,1-.34-.52m9.48-4.23c-1-2.17-1.93-4.37-2.91-6.55h-.16l-2.91,6.55Z"/><path class="cls-1" d="M1679.74,67.22a.38.38,0,0,1,.38-.38h5.17a4.29,4.29,0,0,1,4.35,4.25,4.43,4.43,0,0,1-3,4.07l2.73,5.08a.37.37,0,0,1-.34.57h-1a.34.34,0,0,1-.32-.18l-2.66-5.29h-3.81v5.1a.39.39,0,0,1-.38.37h-.78a.38.38,0,0,1-.38-.37Zm5.45,6.81a2.87,2.87,0,1,0,0-5.73h-3.87V74Z"/><rect class="cls-1" x="1696.41" y="66.84" width="1.56" height="13.97" rx="0.38" ry="0.38"/><path class="cls-1" d="M1704.62,78.72l.3-.38c.2-.26.42-.42.7-.18a5.49,5.49,0,0,0,3.37,1.52,2.41,2.41,0,0,0,2.68-2.2c0-1.38-1.2-2.19-3.5-3.15s-3.51-1.86-3.51-4.14c0-1.35,1.08-3.55,4.25-3.55a6.48,6.48,0,0,1,3.41,1,.45.45,0,0,1,.13.68l-.24.38a.45.45,0,0,1-.7.18,5.6,5.6,0,0,0-2.62-.92c-2.11,0-2.75,1.36-2.75,2.19,0,1.34,1,2.12,2.69,2.82,2.7,1.1,4.43,2.12,4.43,4.43,0,2.08-2,3.59-4.31,3.59a6.52,6.52,0,0,1-4.21-1.61.44.44,0,0,1-.12-.68"/><path class="cls-1" d="M1728.48,69.71,1727,70.83a.3.3,0,0,1-.46,0l-.38-.42a.31.31,0,0,1,0-.44l2.79-2.71h.54a.38.38,0,0,1,.36.38V80.44a.37.37,0,0,1-.36.37h-.72a.37.37,0,0,1-.38-.37Z"/><path class="cls-1" d="M1608.56,16.68c0-.35.13-.84.75-.84s.74.5.74.84v5.13c-.5.05-1,.11-1.49.19Zm2.47-.35c0-.48.17-1.16,1-1.16s1,.69,1,1.16v5.41c-.34,0-.69,0-1,0s-.69,0-1,0Zm3,.35c0-.35.12-.84.74-.84s.74.5.74.84V22c-.49-.08-1-.14-1.48-.19Zm4.75,11.43V22.83L1616.92,21V14.56l.92-.91a20,20,0,0,1-4.24-8.21h-3.17a19.87,19.87,0,0,1-4.21,8.17v0l.93.93V21l-1.87,1.82v5.28a21.44,21.44,0,0,0-14.55,18.26l20.54-8.55.77-.33.78.33,20.54,8.55a21.44,21.44,0,0,0-14.56-18.26"/><path class="cls-1" d="M1399.38,122.12v1.22h-10.81v-1.22l2.45-.48s.11-.23.26-.59a3.83,3.83,0,0,0,.21-1.37V98.62a3,3,0,0,0-.08-.74c-.06-.23-.12-.43-.18-.61a4.39,4.39,0,0,1-.21-.61l-2.45-.43V95H1399a23.15,23.15,0,0,1,4,.33,10.6,10.6,0,0,1,3.34,1.13,6.25,6.25,0,0,1,2.29,2.19,6.52,6.52,0,0,1,.85,3.46,7.05,7.05,0,0,1-3.38,6.34,10.77,10.77,0,0,1-3.53,1.42,19,19,0,0,1-4.08.44,3.83,3.83,0,0,1-.56-.88.73.73,0,0,1-.09-.35,17.83,17.83,0,0,0,2.7-.5,5.19,5.19,0,0,0,2.09-1.07,4.89,4.89,0,0,0,1.36-2,9.56,9.56,0,0,0,.47-3.29,5.7,5.7,0,0,0-1.37-3.92,5.17,5.17,0,0,0-4.12-1.57h-2.57v22.93a3.79,3.79,0,0,0,.22,1.39c.09.21.17.39.26.57Z"/><path class="cls-1" d="M1423.46,110.78c-.4-1.3-.83-2.6-1.26-3.87-.38-1.11-.78-2.26-1.2-3.47s-.81-2.27-1.15-3.21c-.62,1.78-1.26,3.54-1.94,5.28s-1.34,3.5-1.94,5.27Zm8.37,8.37a12.29,12.29,0,0,0,.57,1.29,2.8,2.8,0,0,0,.63.83,2.74,2.74,0,0,0,.94.52,8.26,8.26,0,0,0,1.52.33v1.22h-11.55v-1.18a5.16,5.16,0,0,0,1.75-.26,2.26,2.26,0,0,0,1-.72,1.49,1.49,0,0,0,0-1.46c-.43-1.19-.88-2.4-1.33-3.64s-.89-2.43-1.33-3.59h-8.71c-.47,1.16-.92,2.35-1.36,3.57s-.85,2.44-1.26,3.66a1.7,1.7,0,0,0-.07,1.22,1.59,1.59,0,0,0,.66.7,3.11,3.11,0,0,0,1.09.35c.42.06.82.1,1.2.13v1.22h-9.42v-1.22a2.44,2.44,0,0,0,1.18-.13,4.78,4.78,0,0,0,1.13-.72,4.47,4.47,0,0,0,1.13-1.64q2.79-5.88,5.19-12.2t4.75-12.3a7.9,7.9,0,0,0,1-.3c.29-.09.59-.17.91-.24a4.14,4.14,0,0,1,.87-.11Z"/><path class="cls-1" d="M1466.06,95v1.22l-1.07.08a3.85,3.85,0,0,0-1.09.24,2,2,0,0,0-.85.68,2.46,2.46,0,0,0-.35,1.44v24.67h-2.52l-17-21.67v18a1.89,1.89,0,0,0,.37,1.24,2.55,2.55,0,0,0,.91.72,3.93,3.93,0,0,0,1.22.35c.45.06.9.1,1.33.13v1.18h-9.24v-1.18c.38,0,.77,0,1.16,0a2.48,2.48,0,0,0,1-.29,1.84,1.84,0,0,0,.72-.74,2.77,2.77,0,0,0,.28-1.37V99.54a2.54,2.54,0,0,0-.39-1.42,5,5,0,0,0-2.09-1.76,1.37,1.37,0,0,1-.28-.48c0-.15-.1-.29-.16-.44A1.09,1.09,0,0,1,1438,95h6l16.52,21.09V98.67a2.06,2.06,0,0,0-.35-1.27,2.17,2.17,0,0,0-.87-.72,3.91,3.91,0,0,0-1.2-.32c-.45-.06-.89-.11-1.33-.13V95Z"/><path class="cls-1" d="M1494,95c0,.58,0,1.15.06,1.72s.1,1.06.16,1.5.17,1,.26,1.48a11.2,11.2,0,0,1-1.4.44,1.83,1.83,0,0,1-.52.09,6.87,6.87,0,0,0-.13-.83c-.06-.23-.12-.47-.17-.7a1.22,1.22,0,0,0-.31-.57,2.79,2.79,0,0,0-1.68-1.13,10.18,10.18,0,0,0-2.37-.26h-4.14v23a4,4,0,0,0,.21,1.39c.09.21.18.4.26.57l2.53.48v1.18h-10.85v-1.18c-.06,0,0,0,.09,0l.69-.15c.35-.08.88-.17,1.57-.29a3.16,3.16,0,0,0,.26-.59,3.61,3.61,0,0,0,.22-1.37v-23h-4.14a9.59,9.59,0,0,0-2.35.26,2.77,2.77,0,0,0-1.62,1.13,1.18,1.18,0,0,0-.28.57c0,.23-.09.47-.15.7a3.7,3.7,0,0,0-.09.83,2.5,2.5,0,0,1-.61-.09,5.56,5.56,0,0,0-.67-.15,3,3,0,0,1-.72-.24c.06-.47.13-1,.22-1.49s.11-.93.17-1.5a16.86,16.86,0,0,0,.09-1.76Z"/><path class="cls-1" d="M1524.83,122.12v1.22H1514v-1.22l2.44-.48a5,5,0,0,0,.26-.59,3.81,3.81,0,0,0,.22-1.37V109.26h-12.08v10.42a4,4,0,0,0,.22,1.39c.09.21.18.39.26.57l2.49.48v1.22H1497v-1.22l2.44-.48a5,5,0,0,0,.26-.59,3.81,3.81,0,0,0,.22-1.37V98.62a3,3,0,0,0-.09-.74c-.06-.23-.12-.43-.17-.61a4.44,4.44,0,0,1-.22-.61l-2.44-.43V95h10.81v1.23l-2.53.48a3.11,3.11,0,0,0-.22.56,3.9,3.9,0,0,0-.22,1.35v8.94h12.08V98.62a3,3,0,0,0-.09-.74c-.06-.23-.12-.43-.17-.61a4.44,4.44,0,0,1-.22-.61l-2.44-.43V95h10.81v1.23l-2.53.48a3.11,3.11,0,0,0-.22.56,3.9,3.9,0,0,0-.22,1.35v21.06a4,4,0,0,0,.22,1.39c.09.21.18.39.26.57Z"/><path class="cls-1" d="M1537.06,93l1.57.52c.58-.58,1.18-1.24,1.79-2s1.16-1.43,1.66-2.07l1.69-2.23-3-1.52Zm12.29,25.67c-.08.49-.17,1-.26,1.52s-.11,1-.15,1.51-.07,1.1-.07,1.68h-20.48v-1.18l2.39-.48a3.6,3.6,0,0,0,.27-.59,3.83,3.83,0,0,0,.21-1.37v-21a3,3,0,0,0-.08-.74c-.06-.24-.12-.44-.18-.61s-.16-.41-.22-.62l-2.39-.56V95h18.48c0,.64.09,1.28.17,1.94s.18,1.24.26,1.76.24,1.21.36,1.79a7.81,7.81,0,0,1-.94,0,1.92,1.92,0,0,1-.59-.13,1.51,1.51,0,0,1-.44-.22c-.06-.23-.13-.48-.22-.74a3.78,3.78,0,0,0-.61-1.22,2.15,2.15,0,0,0-.8-.69,5,5,0,0,0-1-.42,8.48,8.48,0,0,0-1.07-.22,8,8,0,0,0-.91-.06h-4.8v10.81h5.93c.61,0,1-.35,1.13-1a18.65,18.65,0,0,0,.31-2.83l1.48.22v9l-1.48,0a16,16,0,0,0-.33-2.64q-.24-1-1.11-1h-5.93v12.38H1543c.26,0,.57,0,.94,0a7.37,7.37,0,0,0,1.11-.15,4.33,4.33,0,0,0,1.07-.35,2,2,0,0,0,.8-.67,3,3,0,0,0,.53-1.31c0-.26.1-.54.13-.83Z"/><path class="cls-1" d="M1574.34,108.61a18.19,18.19,0,0,0-.59-4.63A12.52,12.52,0,0,0,1572,100a9.09,9.09,0,0,0-2.89-2.74,7.6,7.6,0,0,0-4-1,7.06,7.06,0,0,0-3.6,1,9.57,9.57,0,0,0-2.94,2.72,14.08,14.08,0,0,0-2,4.08,16.82,16.82,0,0,0-.72,5,18.14,18.14,0,0,0,.56,4.25,16.11,16.11,0,0,0,1.68,4.21,10.79,10.79,0,0,0,2.79,3.2,6.22,6.22,0,0,0,3.9,1.29,7.75,7.75,0,0,0,3.55-.87,9.18,9.18,0,0,0,3.06-2.58,13.36,13.36,0,0,0,2.13-4.2,18.61,18.61,0,0,0,.81-5.73m-8.54-14.17a16,16,0,0,1,5.62,1,12.83,12.83,0,0,1,7.54,7.32,15.29,15.29,0,0,1,1.09,5.91,14.22,14.22,0,0,1-1.42,6.49,14.65,14.65,0,0,1-3.68,4.75,16,16,0,0,1-5.14,2.92,17.49,17.49,0,0,1-5.8,1,13,13,0,0,1-5-1,13.62,13.62,0,0,1-4.39-2.89,14.33,14.33,0,0,1-3.11-4.63,15.39,15.39,0,0,1-1.18-6.21,13.8,13.8,0,0,1,1.27-6,14.55,14.55,0,0,1,3.37-4.64,15,15,0,0,1,4.93-3,16.94,16.94,0,0,1,5.91-1"/><path class="cls-1" d="M1609.85,95v1.22l-1.06.08a3.7,3.7,0,0,0-1.09.24,1.86,1.86,0,0,0-.85.68,2.39,2.39,0,0,0-.35,1.44v24.67H1604l-17-21.67v18a1.89,1.89,0,0,0,.37,1.24,2.5,2.5,0,0,0,.92.72,3.85,3.85,0,0,0,1.22.35c.45.06.89.1,1.33.13v1.18h-9.24v-1.18c.37,0,.76,0,1.15,0a2.48,2.48,0,0,0,1-.29,1.84,1.84,0,0,0,.72-.74,2.76,2.76,0,0,0,.29-1.37V99.54a2.54,2.54,0,0,0-.39-1.42,4.68,4.68,0,0,0-.88-1,4.25,4.25,0,0,0-1.22-.78,1.55,1.55,0,0,1-.28-.48,3.81,3.81,0,0,0-.15-.44,1.11,1.11,0,0,1-.09-.43h6l16.52,21.09V98.67a2.12,2.12,0,0,0-.34-1.27,2.26,2.26,0,0,0-.88-.72,3.77,3.77,0,0,0-1.19-.32c-.46-.06-.9-.11-1.33-.13V95Z"/><path class="cls-1" d="M1627,100.67a3,3,0,0,0,.41,1.48,7.23,7.23,0,0,0,1.11,1.46,14.7,14.7,0,0,0,1.59,1.4c.6.45,1.22.89,1.86,1.33.87.58,1.75,1.2,2.65,1.87a17.05,17.05,0,0,1,2.43,2.18,11.73,11.73,0,0,1,1.76,2.55,6.58,6.58,0,0,1,.7,3,7.55,7.55,0,0,1-.7,3.25,7,7,0,0,1-2,2.5,9.27,9.27,0,0,1-3.27,1.61,15.83,15.83,0,0,1-4.46.57,19.82,19.82,0,0,1-3.32-.22,9.63,9.63,0,0,1-2-.52,3.9,3.9,0,0,1-1.27-.79c0-.78,0-1.53,0-2.26,0-.58,0-1.17,0-1.77a5.46,5.46,0,0,0-.07-1.24,4.3,4.3,0,0,1,.88,0,2.45,2.45,0,0,1,.61.13,1.44,1.44,0,0,1,.43.22,8.46,8.46,0,0,0,.26,1.33,4.87,4.87,0,0,0,.77,1.57,4.23,4.23,0,0,0,1.48,1.28,5,5,0,0,0,2.46.53,4.67,4.67,0,0,0,3.6-1.44,5.21,5.21,0,0,0,1.33-3.66,4.78,4.78,0,0,0-.51-2.22,7.63,7.63,0,0,0-1.32-1.88,13.88,13.88,0,0,0-1.9-1.63l-2.16-1.55c-.78-.52-1.55-1.07-2.31-1.64a14.53,14.53,0,0,1-2-1.79,8.41,8.41,0,0,1-1.42-2,5,5,0,0,1-.55-2.29,5.81,5.81,0,0,1,.88-3.18,8.45,8.45,0,0,1,2.24-2.38,10.45,10.45,0,0,1,3.1-1.48,12.43,12.43,0,0,1,3.46-.5,14.83,14.83,0,0,1,2.86.24,11.62,11.62,0,0,1,2,.55,6.81,6.81,0,0,1,1.53.78c0,.9-.06,1.64-.07,2.23s0,1.15,0,1.72,0,1,0,1.24a3.14,3.14,0,0,1-.87.11,2.65,2.65,0,0,1-.65-.11,2.12,2.12,0,0,1-.57-.26,6.31,6.31,0,0,0-.22-1.66,4,4,0,0,0-.76-1.5,3.72,3.72,0,0,0-1.53-1.09,6.39,6.39,0,0,0-2.5-.42,3.86,3.86,0,0,0-4,4.36"/><path class="cls-1" d="M1665.19,108.61a17.76,17.76,0,0,0-.59-4.63,12.73,12.73,0,0,0-1.76-3.94,9.12,9.12,0,0,0-2.9-2.74,7.6,7.6,0,0,0-4-1,7,7,0,0,0-3.59,1,9.72,9.72,0,0,0-2.95,2.72,14.08,14.08,0,0,0-2,4.08,16.82,16.82,0,0,0-.72,5,17.67,17.67,0,0,0,.57,4.25,15.78,15.78,0,0,0,1.68,4.21,10.79,10.79,0,0,0,2.79,3.2,6.2,6.2,0,0,0,3.9,1.29,7.79,7.79,0,0,0,3.55-.87,9.15,9.15,0,0,0,3-2.58,13.37,13.37,0,0,0,2.14-4.2,18.93,18.93,0,0,0,.8-5.73m-8.54-14.17a15.92,15.92,0,0,1,5.62,1,13,13,0,0,1,4.54,2.83,13.16,13.16,0,0,1,3,4.49,15.29,15.29,0,0,1,1.09,5.91,14.35,14.35,0,0,1-1.41,6.49,14.81,14.81,0,0,1-3.69,4.75,15.85,15.85,0,0,1-5.14,2.92,17.49,17.49,0,0,1-5.8,1,13.07,13.07,0,0,1-5-1,13.47,13.47,0,0,1-4.38-2.89,14.52,14.52,0,0,1-3.12-4.63,15.56,15.56,0,0,1-1.17-6.21,13.94,13.94,0,0,1,1.26-6,14.58,14.58,0,0,1,3.38-4.64,15,15,0,0,1,4.92-3,17,17,0,0,1,5.91-1"/><path class="cls-1" d="M1683.59,122.12v1.22h-10.81v-1.22l2.44-.48a5,5,0,0,0,.26-.59,3.81,3.81,0,0,0,.22-1.37V98.62a3,3,0,0,0-.09-.74c-.06-.23-.12-.43-.17-.61a4.44,4.44,0,0,1-.22-.61l-2.44-.43V95h10.46a23.18,23.18,0,0,1,4.27.37,10.05,10.05,0,0,1,3.29,1.2,6,6,0,0,1,2.14,2.18,6.84,6.84,0,0,1,.76,3.36,5.69,5.69,0,0,1-.85,3.21,7.46,7.46,0,0,1-2,2.06,9,9,0,0,1-2.29,1.16c-.75.25-1.32.41-1.69.5a5.24,5.24,0,0,1,1.91,1.2,10.72,10.72,0,0,1,1.49,1.83,15.24,15.24,0,0,1,1.15,2.2c.33.79.66,1.56,1,2.31s.54,1.33.83,2a11.67,11.67,0,0,0,1,1.76,6,6,0,0,0,1.13,1.29,2,2,0,0,0,1.31.5l-.44,1.22h-4.44a2.65,2.65,0,0,1-2.14-1,9.28,9.28,0,0,1-1.42-2.48,27,27,0,0,1-1-3.25,32.8,32.8,0,0,0-1-3.25,9.23,9.23,0,0,0-1.35-2.48,2.38,2.38,0,0,0-2-1l-.74-1.44a10.28,10.28,0,0,0,2.42-.48,7,7,0,0,0,2.14-1.13,5.58,5.58,0,0,0,1.5-1.88,5.91,5.91,0,0,0,.57-2.7,5.61,5.61,0,0,0-.42-2.18,5.18,5.18,0,0,0-1.15-1.74,5.25,5.25,0,0,0-1.86-1.18,6.69,6.69,0,0,0-2.46-.43h-2.18v23a4,4,0,0,0,.22,1.39c.09.21.18.39.26.57Z"/><path class="cls-1" d="M1709.6,121.6a4.08,4.08,0,0,0,2.16-.55,4.45,4.45,0,0,0,1.46-1.4,5.77,5.77,0,0,0,.83-1.91,9.17,9.17,0,0,0,.26-2.12,12.06,12.06,0,0,0-.17-1.68,6.56,6.56,0,0,0-.76-2.11,5.09,5.09,0,0,0-4.82-2.57h-2V121.6Zm-3.09-24.85v10.77h.7q6,0,6-5.28a7.27,7.27,0,0,0-.31-2.18,4.6,4.6,0,0,0-.95-1.74,4.55,4.55,0,0,0-1.66-1.16,6.28,6.28,0,0,0-2.35-.41Zm11.59,5.53a7.17,7.17,0,0,1-.19,1.6,4.91,4.91,0,0,1-.72,1.63,6.13,6.13,0,0,1-1.4,1.44,6.33,6.33,0,0,1-2.22,1,5.76,5.76,0,0,1,2.68.89,7.74,7.74,0,0,1,3.12,4.06,7.29,7.29,0,0,1,.39,2.24,9.1,9.1,0,0,1-.78,4,6.36,6.36,0,0,1-2.14,2.51,8.75,8.75,0,0,1-3.2,1.29,20.19,20.19,0,0,1-4,.37h-11V122.2l2.4-.52c0-.06.11-.27.26-.63a3.83,3.83,0,0,0,.22-1.38v-21a3.45,3.45,0,0,0-.07-.74,4,4,0,0,0-.15-.62,4.44,4.44,0,0,1-.22-.61l-2.44-.52V95H1708a21.49,21.49,0,0,1,3.94.34,9.68,9.68,0,0,1,3.23,1.2,6.43,6.43,0,0,1,2.18,2.25,6.94,6.94,0,0,1,.8,3.48"/><path class="cls-1" d="M1745.42,108.61a18.19,18.19,0,0,0-.59-4.63,12.75,12.75,0,0,0-1.77-3.94,9,9,0,0,0-2.9-2.74,7.54,7.54,0,0,0-4-1,7.06,7.06,0,0,0-3.6,1,9.57,9.57,0,0,0-2.94,2.72,13.84,13.84,0,0,0-2,4.08,16.82,16.82,0,0,0-.71,5,17.63,17.63,0,0,0,.56,4.25,16.11,16.11,0,0,0,1.68,4.21,10.79,10.79,0,0,0,2.79,3.2,6.22,6.22,0,0,0,3.9,1.29,7.79,7.79,0,0,0,3.55-.87,9.06,9.06,0,0,0,3-2.58,13.37,13.37,0,0,0,2.14-4.2,18.61,18.61,0,0,0,.81-5.73m-8.55-14.17a16,16,0,0,1,5.63,1,12.83,12.83,0,0,1,7.54,7.32,15.48,15.48,0,0,1,1.09,5.91,14.35,14.35,0,0,1-1.42,6.49,14.78,14.78,0,0,1-3.68,4.75,15.89,15.89,0,0,1-5.15,2.92,17.48,17.48,0,0,1-5.79,1,13.08,13.08,0,0,1-5-1,13.68,13.68,0,0,1-4.38-2.89,14.33,14.33,0,0,1-3.11-4.63,15.39,15.39,0,0,1-1.18-6.21,13.94,13.94,0,0,1,1.26-6,14.73,14.73,0,0,1,3.38-4.64,15,15,0,0,1,4.93-3,16.92,16.92,0,0,1,5.9-1"/><path class="cls-1" d="M1780.93,95v1.22l-1.07.08a3.85,3.85,0,0,0-1.09.24,2,2,0,0,0-.85.68,2.46,2.46,0,0,0-.35,1.44v24.67h-2.52l-17-21.67v18a1.89,1.89,0,0,0,.37,1.24,2.55,2.55,0,0,0,.91.72,3.91,3.91,0,0,0,1.23.35c.44.06.89.1,1.32.13v1.18h-9.24v-1.18c.38,0,.77,0,1.16,0a2.48,2.48,0,0,0,1-.29,1.84,1.84,0,0,0,.72-.74,2.77,2.77,0,0,0,.28-1.37V99.54a2.54,2.54,0,0,0-.39-1.42,5,5,0,0,0-2.09-1.76,1.55,1.55,0,0,1-.28-.48c0-.15-.1-.29-.16-.44a1.31,1.31,0,0,1-.08-.43h6l16.52,21.09V98.67a2.06,2.06,0,0,0-.35-1.27,2.17,2.17,0,0,0-.87-.72,3.91,3.91,0,0,0-1.2-.32c-.45-.06-.89-.11-1.33-.13V95Z"/><path class="cls-1" d="M1811.92,95v1.22l-1.07.08a3.77,3.77,0,0,0-1.09.24,1.91,1.91,0,0,0-.85.68,2.46,2.46,0,0,0-.35,1.44v24.67H1806l-17-21.67v18a2,2,0,0,0,.37,1.24,2.59,2.59,0,0,0,.92.72,3.85,3.85,0,0,0,1.22.35c.45.06.89.1,1.33.13v1.18h-9.24v-1.18c.38,0,.76,0,1.16,0a2.48,2.48,0,0,0,1-.29,1.84,1.84,0,0,0,.72-.74,2.77,2.77,0,0,0,.28-1.37V99.54a2.54,2.54,0,0,0-.39-1.42,5,5,0,0,0-2.09-1.76,1.61,1.61,0,0,1-.29-.48,3.81,3.81,0,0,0-.15-.44,1.09,1.09,0,0,1-.08-.43h6l16.52,21.09V98.67a2.12,2.12,0,0,0-.35-1.27,2.17,2.17,0,0,0-.87-.72,3.91,3.91,0,0,0-1.2-.32c-.45-.06-.89-.11-1.33-.13V95Z"/><path class="cls-1" d="M1836,118.63c-.09.49-.17,1-.26,1.52s-.11,1-.15,1.51-.07,1.1-.07,1.68h-20.48v-1.18l2.39-.48a3.16,3.16,0,0,0,.26-.59,3.61,3.61,0,0,0,.22-1.37v-21a3.5,3.5,0,0,0-.08-.74c-.06-.24-.12-.44-.18-.61a5.11,5.11,0,0,1-.22-.62l-2.39-.56V95h18.48c0,.64.08,1.28.17,1.94s.18,1.24.26,1.76.24,1.21.35,1.79a7.94,7.94,0,0,1-.94,0,1.92,1.92,0,0,1-.58-.13,1.51,1.51,0,0,1-.44-.22c-.06-.23-.13-.48-.22-.74a4,4,0,0,0-.61-1.22,2.15,2.15,0,0,0-.8-.69,5.23,5.23,0,0,0-1-.42,8.48,8.48,0,0,0-1.07-.22,8.12,8.12,0,0,0-.91-.06h-4.8v10.81h5.93c.61,0,1-.35,1.13-1a18.65,18.65,0,0,0,.31-2.83l1.48.22v9l-1.48,0a16,16,0,0,0-.33-2.64q-.24-1-1.11-1h-5.93v12.38h6.76c.26,0,.57,0,.94,0a7.37,7.37,0,0,0,1.11-.15,4.26,4.26,0,0,0,1.06-.35,2,2,0,0,0,.81-.67,2.92,2.92,0,0,0,.52-1.31,5.33,5.33,0,0,0,.13-.83Z"/></svg>