<svg id="Capa_1" data-name="Capa 1" xmlns="http://www.w3.org/2000/svg" viewBox="0 0 1451.25 512"><defs><style>.cls-1{fill:#fff;}</style></defs><title>Plan de travail 1300</title><path class="cls-1" d="M273,226a10,10,0,1,0,10,10A10,10,0,0,0,273,226Z"/><path class="cls-1" d="M273,0H53A50.06,50.06,0,0,0,3,50V462a50.06,50.06,0,0,0,50,50H273a50.06,50.06,0,0,0,50-50V50A50.06,50.06,0,0,0,273,0Zm30,462a30,30,0,0,1-30,30H53a30,30,0,0,1-30-30V432H303Zm0-50H23V80H303Zm0-352H23V50A30,30,0,0,1,53,20H273a30,30,0,0,1,30,30Z"/><path class="cls-1" d="M173,452H153a10,10,0,0,0,0,20h20a10,10,0,0,0,0-20Z"/><path class="cls-1" d="M233,226H209.93l-27.57-73.51a10,10,0,0,0-18.72,0L113,287.52l-20.64-55A10,10,0,0,0,83,226H53a10,10,0,0,0,0,20H76.07l27.57,73.51a10,10,0,0,0,18.72,0l50.64-135,20.64,55A10,10,0,0,0,203,246h30a10,10,0,0,0,0-20Z"/><path class="cls-1" d="M537.26,198.46l50.22,126H551.27l-9.41-24.41H492.65l-9.41,24.41H449l50.22-126Zm-34.81,76.23h29.61l-14.4-37.22h-.8Z"/><path class="cls-1" d="M628.69,356.52H596.28V235.27h32.41v15.41c4.41-10.6,14.41-17.81,29.41-17.81,26.21,0,39.62,20.81,39.62,47,0,26.41-13.41,47-39.62,47-15,0-25-7.21-29.41-17.61Zm0-76c0,13,7,21.41,18,21.41,12.6,0,18.41-9,18.41-22,0-12.8-5.81-21.81-18.41-21.81-11,0-18,8.41-18,21.21Z"/><path class="cls-1" d="M742.93,356.52H710.52V235.27h32.41v15.41c4.41-10.6,14.41-17.81,29.42-17.81,26.2,0,39.61,20.81,39.61,47,0,26.41-13.41,47-39.61,47-15,0-25-7.21-29.42-17.61Zm0-76c0,13,7,21.41,18,21.41,12.61,0,18.41-9,18.41-22,0-12.8-5.8-21.81-18.41-21.81-11,0-18,8.41-18,21.21Z"/><path class="cls-1" d="M857.18,198.46v126H824.76v-126Z"/><path class="cls-1" d="M874.58,198.46H907.4v28.41H874.58Zm32.61,36.81v89.24H874.78V235.27Z"/><path class="cls-1" d="M968.82,232.87c26.81,0,41.81,17.41,44,38.82l-26.61,1.8c-2.2-11-7.6-16.21-17-16.21-9.81,0-16.61,6.6-16.61,22.61s6.8,22.61,16.61,22.61c9.4,0,14.8-5.4,17-16.41l26.61,2c-2.2,21.61-17.2,38.82-44,38.82-28.21,0-48.82-18.61-48.82-47C920,251.68,940.61,232.87,968.82,232.87Z"/><path class="cls-1" d="M1108.67,298.3c0,4.6,2,6.6,5.4,6.6a18.45,18.45,0,0,0,7.2-1.4v17.2c-4.6,3.21-11,5.81-20.21,5.81-11,0-19.6-5.61-22.6-15.81-5.21,10.4-15.41,15.81-29.61,15.81-17.41,0-28.81-9-28.81-24.21,0-17.21,12.4-24.61,31.81-28l25-4.2v-1.4c0-7.41-3.41-11.81-11.21-11.81-7.2,0-10.8,4.6-12.2,11.21l-30-2c2.8-19.61,17.4-33.22,44.21-33.22,23.61,0,41,10.21,41,35Zm-31.81-12.41-13.21,2.4c-7.8,1.6-12.4,4-12.4,9.81,0,4.6,3.6,7.6,9,7.6,9.2,0,16.61-6.8,16.61-18.41Z"/><path class="cls-1" d="M1132.88,257.68h-12v-20l6.61-1c9-1.4,11.8-6.2,14-14.4l3-11.6h20.41v24.6h23.21v22.41h-23.21v32.61c0,7.61,3.6,10.61,10.2,10.61a36,36,0,0,0,13.81-3v21c-6.81,5-14.61,8-26.81,8-15,0-29.21-6.21-29.21-27.21Z"/><path class="cls-1" d="M1201.1,198.46h32.81v28.41H1201.1Zm32.61,36.81v89.24H1201.3V235.27Z"/><path class="cls-1" d="M1295.33,326.91c-29.21,0-48.81-19.21-48.81-47,0-27.61,19.6-47,48.81-47,29,0,48.82,19.41,48.82,47C1344.15,307.7,1324.34,326.91,1295.33,326.91Zm0-24.41c11.21,0,16.21-9.2,16.21-22.61s-5-22.61-16.21-22.61c-11.4,0-16.2,9.21-16.2,22.61S1283.93,302.5,1295.33,302.5Z"/><path class="cls-1" d="M1389.37,324.51H1357V235.27h32.41v13.41c4.8-9.8,15.4-15.81,28.81-15.81,24.41,0,32.21,17,32.21,35.62v56H1418V277.09c0-12.21-3.4-18.61-13.21-18.61-11,0-15.4,8.81-15.4,22.21Z"/></svg>