<?xml version="1.0" encoding="iso-8859-1"?>
<!-- Generator: Adobe Illustrator 19.0.0, SVG Export Plug-In . SVG Version: 6.00 Build 0)  -->
<svg xmlns="http://www.w3.org/2000/svg" xmlns:xlink="http://www.w3.org/1999/xlink" version="1.1" id="Capa_1" x="0px" y="0px" viewBox="0 0 512 512" style="enable-background:new 0 0 512 512;" xml:space="preserve" width="512px" height="512px">
<g>
	<g>
		<path d="M366,226.01c-5.53,0-9.99,4.452-9.99,9.99c0,5.535,4.454,9.987,9.99,9.987c5.535,0,9.99-4.452,9.99-9.987    C375.99,230.47,371.538,226.01,366,226.01z" fill="#FFFFFF"/>
	</g>
</g>
<g>
	<g>
		<path d="M366,0H146c-27.57,0-50,22.43-50,50v412c0,27.57,22.43,50,50,50h220c27.57,0,50-22.43,50-50V50C416,22.43,393.57,0,366,0z     M396,462c0,16.542-13.458,30-30,30H146c-16.542,0-30-13.458-30-30v-30h280V462z M396,412H116V80h280V412z M396,60H116V50    c0-16.542,13.458-30,30-30h220c16.542,0,30,13.458,30,30V60z" fill="#FFFFFF"/>
	</g>
</g>
<g>
	<g>
		<path d="M266,452h-20c-5.523,0-10,4.477-10,10s4.477,10,10,10h20c5.523,0,10-4.477,10-10S271.523,452,266,452z" fill="#FFFFFF"/>
	</g>
</g>
<g>
	<g>
		<path d="M326,226h-23.07l-27.567-73.511C273.899,148.586,270.168,146,266,146c-4.168,0-7.899,2.586-9.363,6.489L206,287.52    l-20.637-55.031C183.899,228.586,180.168,226,176,226h-30c-5.523,0-10,4.477-10,10s4.477,10,10,10h23.07l27.567,73.511    c1.464,3.903,5.195,6.489,9.363,6.489c4.168,0,7.899-2.586,9.363-6.489L266,184.48l20.637,55.031    c1.464,3.903,5.195,6.489,9.363,6.489h30c5.523,0,10-4.477,10-10C336,230.477,331.523,226,326,226z" fill="#FFFFFF"/>
	</g>
</g>
<g>
</g>
<g>
</g>
<g>
</g>
<g>
</g>
<g>
</g>
<g>
</g>
<g>
</g>
<g>
</g>
<g>
</g>
<g>
</g>
<g>
</g>
<g>
</g>
<g>
</g>
<g>
</g>
<g>
</g>
</svg>
