<svg id="Calque_1" data-name="Calque 1" xmlns="http://www.w3.org/2000/svg" viewBox="0 0 523.7 530.32"><defs><style>.cls-1{fill:#fff;}.cls-2{fill:none;stroke:#fff;stroke-miterlimit:10;stroke-width:8px;}</style></defs><title>Plan de travail 1300</title><g id="g3616"><path id="path3618" class="cls-1" d="M294.39,463.44a25,25,0,1,0,25,24.95,24.95,24.95,0,0,0-25-24.95m29.94,24.95a29.94,29.94,0,1,1-29.94-29.94,29.93,29.93,0,0,1,29.94,29.94"/></g><g id="g3620"><path id="path3622" class="cls-1" d="M327.22,436a25,25,0,1,0,24.95,24.95A24.95,24.95,0,0,0,327.22,436m29.94,24.95A29.94,29.94,0,1,1,327.22,431a29.94,29.94,0,0,1,29.94,29.94"/></g><g id="g3624"><path id="path3626" class="cls-1" d="M302.7,464.72a25.12,25.12,0,0,0-5.46-1.16l-.33-2.63.32-2.38a29.76,29.76,0,0,1,5.23.89Z"/></g><g id="g3628"><path id="path3630" class="cls-1" d="M229.91,463.44a24.95,24.95,0,1,0,25,24.95,24.95,24.95,0,0,0-25-24.95m29.94,24.95a29.94,29.94,0,1,1-29.94-29.94,29.93,29.93,0,0,1,29.94,29.94"/></g><g id="g3632"><path id="path3634" class="cls-1" d="M197.47,436a25,25,0,1,0,25,24.95,24.95,24.95,0,0,0-25-24.95m29.95,24.95A29.95,29.95,0,1,1,197.47,431a30,30,0,0,1,29.95,29.94"/></g><g id="g3636"><path id="path3638" class="cls-1" d="M262.35,436a25,25,0,1,0,24.95,24.95A24.95,24.95,0,0,0,262.35,436m29.94,24.95A29.94,29.94,0,1,1,262.35,431a29.94,29.94,0,0,1,29.94,29.94"/></g><g id="g3640"><path id="path3642" class="cls-1" d="M200.09,491.08c-.08-.89-.12-1.78-.12-2.69a29.44,29.44,0,0,1,.15-3l5.17-1.06a24.56,24.56,0,0,0-.33,4c0,.6,0,1.19.06,1.79Z"/></g><g id="g3644"><path id="path3646" class="cls-1" d="M265,490.88c-.07-.82-.11-1.65-.11-2.49s.05-1.89.13-2.81l5.17-1.11a25.39,25.39,0,0,0-.3,3.92c0,.55,0,1.1.05,1.64l-2.26,1.17Z"/></g><g id="g3648"><path id="path3650" class="cls-1" d="M238,464.78a24.57,24.57,0,0,0-5.84-1.24l-2.25-5.09c.7,0,1.4,0,2.09.07a29.81,29.81,0,0,1,5.79,1Z"/></g><polyline class="cls-2" points="160.06 172.63 160.06 14.68 230.18 14.68 230.18 172.45"/><polyline class="cls-2" points="299.46 172.29 301.14 14.35 371.25 15.02 369.58 172.78"/><circle class="cls-2" cx="265.24" cy="172.45" r="105.18"/><path class="cls-2" d="M265.24,277.08A105.18,105.18,0,0,1,160.06,171.9"/><path class="cls-2" d="M370.42,171.9A105.18,105.18,0,0,1,265.24,277.08"/><circle class="cls-2" cx="265.24" cy="173.55" r="35.06"/><path class="cls-1" d="M20.38,342.38V325.23h4v17.2c0,5.29,2.72,7.89,7.79,7.89s7.87-2.6,7.87-7.85V325.23h3.92v17.15c0,8.12-5.25,11.16-11.79,11.16S20.38,350.5,20.38,342.38Z"/><path class="cls-1" d="M77.32,353c-.56-.75-1-2.78-1.2-6-.19-3.09-1.71-5.16-5.67-5.16h-8.2V353H58.34V325.23H70.13c7.37,0,10.92,3.26,10.92,8.2,0,4.28-3,6.53-6.59,6.92,3.55.66,5.25,2.74,5.53,6,.37,4.06.51,5.65,1.47,6.66ZM69.9,338.77c4.93,0,7.14-1.77,7.14-5.21,0-3.17-2.21-5.2-7.14-5.2H62.25v10.41Z"/><path class="cls-1" d="M107.49,353H95.14V325.23H107c7.19,0,10.14,3,10.14,7.41,0,3.22-2.4,5.42-5.48,5.95,3.54.57,6.31,2.82,6.31,6.79C118,350.19,114.26,353,107.49,353ZM99,337.22h8.11c4.19,0,6-1.72,6-4.41s-1.8-4.45-6-4.45H99Zm0,3v9.7h8.39c4.33,0,6.59-1.81,6.59-4.81s-2.26-4.89-6.59-4.89Z"/><path class="cls-1" d="M145,325.23,157.1,353h-4.23l-3.51-8.16H136.14L132.73,353h-3.91l11.84-27.78Zm-7.64,16.58h10.68l-5.29-12.35h-.19Z"/><path class="cls-1" d="M189.72,346.48V325.23h3.73V353h-3.18L173.41,330.7V353h-3.73V325.23h4.14Z"/><path class="cls-1" d="M239,353.54c-8.43,0-15.06-5.87-15.06-14.42S230.53,324.7,239,324.7,254,330.56,254,339.12,247.39,353.54,239,353.54Zm0-22.23c-4.28,0-7,3.09-7,7.81s2.72,7.8,7,7.8,7-3.08,7-7.8S243.24,331.31,239,331.31Z"/><path class="cls-1" d="M274.2,325.23v21.61h14.37V353h-22.2V325.23Z"/><path class="cls-1" d="M314.87,325.23h8.43l-11.14,17.24V353h-7.6V342.47l-11.15-17.24h8.7l6.55,10Z"/><path class="cls-1" d="M347.3,353l-5.2-19.54h-.19V353h-7.18V325.23h12.11l4.29,17.46h.14l4.1-17.46H367.2V353h-7.83V333.47h-.18L354,353Z"/><path class="cls-1" d="M388.62,353h-7.78V325.23H393.6c7.6,0,12,3.39,12,9.52s-4.42,9.57-12,9.57h-5Zm4.61-14.68c3.5,0,4.84-1.2,4.84-3.53s-1.34-3.57-4.84-3.57h-4.61v7.1Z"/><path class="cls-1" d="M425.2,325.23V353h-7.83V325.23Z"/><path class="cls-1" d="M452.42,324.7c8.9,0,13.64,5.42,14.19,12.35l-7.51.26c-.46-3.09-2.21-5.95-6.72-5.95-4.29,0-6.77,3-6.77,7.76s2.48,7.76,6.77,7.76c4.51,0,6.26-2.87,6.72-5.95l7.51.31c-.55,6.92-5.29,12.3-14.19,12.3-8.47,0-14.88-5.87-14.88-14.42S444,324.7,452.42,324.7Z"/><path class="cls-1" d="M484.76,343c.28,3.48,3.09,4.67,6.31,4.67,2.72,0,4.47-.93,4.47-2.47s-1.7-1.9-3.91-2.29l-5.3-.88c-4.75-.84-8.06-3.4-8.06-8.25,0-5.65,4.6-9,11.84-9,8,0,12.34,3.75,12.48,9.92l-7.19.13c-.23-2.86-2.39-4.19-5.39-4.19-2.58,0-4.05,1-4.05,2.52,0,1.28,1.11,1.76,2.9,2.07l5.48.93c6.08,1,8.85,4.05,8.85,8.59,0,5.91-5.35,8.87-12.12,8.87-7.87,0-13.49-3.66-13.49-10.36Z"/><g id="g3540"><path id="path3542" class="cls-1" d="M112.27,398.08a3.31,3.31,0,0,0,3,2.06c1.55,0,2.64-1,2.64-3.35v-12h3v11.66c0,4-2,6.4-5.81,6.4a5.77,5.77,0,0,1-5-2.64Z"/></g><g id="g3544"><path id="path3546" class="cls-1" d="M127.43,394.94h5.3a2.37,2.37,0,0,0-2.58-2.43,2.77,2.77,0,0,0-2.72,2.43m-.15,2.3a3.08,3.08,0,0,0,3.27,3,3.68,3.68,0,0,0,3.19-1.76l2,1.83a6.16,6.16,0,0,1-5.15,2.54,6,6,0,0,1-6.24-6.42c0-3.6,2.21-6.59,5.81-6.59,4,0,5.68,3.22,5.68,6.36,0,.43,0,1,0,1Z"/></g><g id="g3548"><path id="path3550" class="cls-1" d="M141.81,397.6c0,1.63.84,2.69,2.34,2.69,1.67,0,2.58-1.29,2.58-3.12v-7h2.89V402.6h-2.84v-1a4.16,4.16,0,0,1-3.22,1.3c-2.76,0-4.64-2-4.64-5.48v-7.23h2.89Z"/></g><g id="g3552"><path id="path3554" class="cls-1" d="M158.4,393.88l2.33-3.7h3.32l-4,6,4.31,6.39H161l-2.61-4.06-2.59,4.06h-3.32l4.31-6.39-4-6h3.32Z"/></g><g id="g3556"><path id="path3558" class="cls-1" d="M182.23,400.11c3.43,0,5.91-2.76,5.91-6.41s-2.48-6.36-5.91-6.36-6,2.78-6,6.36,2.48,6.41,6,6.41m-.1-15.56a9.17,9.17,0,1,1-9,9.15,9,9,0,0,1,9-9.15"/></g><path id="path3560" class="cls-1" d="M194.61,384.83h2.89V402.6h-2.89Z"/><g id="g3562"><path id="path3564" class="cls-1" d="M203.21,407.52l1.92-4.77-4.91-12.58h3.29l3.24,9,3.3-9h3.14l-6.94,17.35Z"/></g><g id="g3566"><path id="path3568" class="cls-1" d="M223.64,395.17c0-1.63-.81-2.69-2.28-2.69-1.67,0-2.56,1.22-2.56,3v7.08h-2.89V390.17h2.84v1.1a4.11,4.11,0,0,1,3.22-1.4,4.06,4.06,0,0,1,3.47,1.62,4.9,4.9,0,0,1,3.88-1.62c3.32,0,4.94,2,4.94,5.5v7.23h-2.88v-7.43c0-1.63-.82-2.69-2.29-2.69-1.67,0-2.59,1.22-2.59,3v7.08h-2.86Z"/></g><g id="g3570"><path id="path3572" class="cls-1" d="M244.11,400.34c2.21,0,3.32-1.85,3.32-3.93s-1.11-3.93-3.32-3.93-3.32,1.85-3.32,3.93,1.09,3.93,3.32,3.93m.2,2.54a5.38,5.38,0,0,1-3.47-1.2v5.84H238V390.18h2.84v1.11a4.43,4.43,0,0,1,3.52-1.42c3.57,0,6.06,2.79,6.06,6.51s-2.49,6.5-6.06,6.5"/></g><path id="path3574" class="cls-1" d="M253.9,390.18h2.9V402.6h-2.9Zm1.47-5.59a1.82,1.82,0,1,1-1.82,1.81,1.8,1.8,0,0,1,1.82-1.81"/><g id="g3576"><path id="path3578" class="cls-1" d="M266.6,392.48c-2.2,0-3.32,1.85-3.32,3.93s1.12,3.93,3.32,3.93,3.32-1.85,3.32-3.93-1.09-3.93-3.32-3.93m-.2-2.61a4.43,4.43,0,0,1,3.52,1.42v-1.11h2.84v17.33h-2.89v-5.82a5.38,5.38,0,0,1-3.47,1.18c-3.57,0-6.06-2.76-6.06-6.48s2.49-6.52,6.06-6.52"/></g><g id="g3580"><path id="path3582" class="cls-1" d="M279.36,397.6c0,1.63.84,2.69,2.33,2.69,1.68,0,2.59-1.29,2.59-3.12v-7h2.89V402.6h-2.84v-1a4.19,4.19,0,0,1-3.22,1.3c-2.76,0-4.64-2-4.64-5.48v-7.23h2.89Z"/></g><g id="g3584"><path id="path3586" class="cls-1" d="M293.69,394.94H299a2.36,2.36,0,0,0-2.58-2.43,2.76,2.76,0,0,0-2.71,2.43m-.16,2.3a3.1,3.1,0,0,0,3.28,3,3.68,3.68,0,0,0,3.19-1.76l1.95,1.83a6.14,6.14,0,0,1-5.14,2.54c-3.73,0-6.24-2.64-6.24-6.42,0-3.6,2.2-6.59,5.8-6.59,4,0,5.68,3.22,5.68,6.36,0,.43,0,1,0,1Z"/></g><g id="g3588"><path id="path3590" class="cls-1" d="M308.88,397.5c-2.34-.53-3.78-1.78-3.78-3.93,0-2.31,1.93-3.7,4.54-3.7a6.22,6.22,0,0,1,4.69,2.08l-1.86,2a3.57,3.57,0,0,0-2.91-1.58c-1.06,0-1.69.54-1.69,1.17s.53,1,1.21,1.17l1.95.45c2.23.51,3.8,1.7,3.8,3.88s-1.67,3.86-4.91,3.86a6.28,6.28,0,0,1-5.15-2.41l1.83-1.88a4.25,4.25,0,0,0,3.55,1.8c1.47,0,1.9-.66,1.9-1.26s-.34-.89-1.52-1.22Z"/></g><g id="g3592"><path id="path3594" class="cls-1" d="M330.48,392.43c-2.2,0-3.32,1.88-3.32,3.95s1.12,4,3.32,4,3.32-1.87,3.32-4-1.09-3.95-3.32-3.95m-.2-2.56a5.22,5.22,0,0,1,3.47,1.22v-6.26h2.89V402.6H333.8v-1.12a4.49,4.49,0,0,1-3.52,1.39c-3.58,0-6.06-2.76-6.06-6.49s2.48-6.51,6.06-6.51"/></g><g id="g3596"><path id="path3598" class="cls-1" d="M343.16,394.94h5.3a2.37,2.37,0,0,0-2.58-2.43,2.77,2.77,0,0,0-2.72,2.43m-.15,2.3a3.08,3.08,0,0,0,3.27,3,3.71,3.71,0,0,0,3.2-1.76l1.95,1.83a6.16,6.16,0,0,1-5.15,2.54,6,6,0,0,1-6.24-6.42c0-3.6,2.21-6.59,5.81-6.59,4,0,5.68,3.22,5.68,6.36,0,.43,0,1,0,1Z"/></g><g id="g3600"><path id="path3602" class="cls-1" d="M373.62,399.86v2.74H361.5V402c0-4.19,1.6-6.42,6-8.65l.46-.23c1.8-.89,2.64-1.72,2.64-3.32s-1.14-2.53-3-2.53a4.46,4.46,0,0,0-4.15,3.09l-2-2a6.53,6.53,0,0,1,6.06-3.85c3.16,0,6.13,1.8,6.13,5.42,0,2.49-1.42,4.18-3.95,5.48l-1.55.78c-1.52.79-3.14,1.78-3.4,3.63Z"/></g><g id="g3604"><path id="path3606" class="cls-1" d="M383.36,387.29c-2.45,0-3.72,2.51-3.72,6.41s1.27,6.43,3.72,6.43,3.73-2.53,3.73-6.43-1.27-6.41-3.73-6.41m0-2.74c4.46,0,6.77,3.95,6.77,9.15s-2.31,9.17-6.77,9.17-6.77-4-6.77-9.17,2.29-9.15,6.77-9.15"/></g><g id="g3608"><path id="path3610" class="cls-1" d="M404.88,399.86v2.74H392.76V402c0-4.19,1.59-6.42,6-8.65l.45-.23c1.81-.89,2.65-1.72,2.65-3.32s-1.14-2.53-3-2.53a4.48,4.48,0,0,0-4.16,3.09l-2-2a6.53,6.53,0,0,1,6.06-3.85c3.16,0,6.13,1.8,6.13,5.42,0,2.49-1.42,4.18-3.95,5.48l-1.55.78c-1.52.79-3.14,1.78-3.4,3.63Z"/></g><g id="g3612"><path id="path3614" class="cls-1" d="M415.54,396v-6.74L410.72,396Zm3,2.74v3.91h-3v-3.91h-8.12v-2.45l8.34-11.41h2.82V396H421v2.74Z"/></g><path class="cls-1" d="M397.37,36.74c-6.71,0-12.22-5-12.22-11.78s5.51-11.78,12.22-11.78S409.61,18.13,409.61,25,404.08,36.74,397.37,36.74Zm0-21.55a9.77,9.77,0,1,0,10,9.77A9.65,9.65,0,0,0,397.37,15.19Zm3.15,15.73a6.11,6.11,0,0,1-.55-2.55c0-1.4-.71-2-2.17-2h-2.94v4.56h-2.51V18.67h5.8c3.21,0,4.82,1.47,4.82,3.74a3,3,0,0,1-2.86,3.09A2.69,2.69,0,0,1,402.55,28c.07,1.8.14,2.41.63,2.88Zm-2.79-6.43c1.88,0,2.72-.6,2.72-1.94s-.84-1.94-2.72-1.94h-2.87v3.88Z"/></svg>