<?xml version="1.0" encoding="iso-8859-1"?>
<!-- Generator: Adobe Illustrator 19.0.0, SVG Export Plug-In . SVG Version: 6.00 Build 0)  -->
<svg xmlns="http://www.w3.org/2000/svg" xmlns:xlink="http://www.w3.org/1999/xlink" version="1.1" id="Capa_1" x="0px" y="0px" viewBox="0 0 512 512" style="enable-background:new 0 0 512 512;" xml:space="preserve" width="512px" height="512px">
<g>
	<g>
		<path d="M479.816,252.792C475.992,132.608,377.096,36,256,36S36.008,132.608,32.184,252.792C13.864,256.44,0,272.624,0,292    c0,19.44,13.952,35.648,32.368,39.232C36.04,371.96,70.328,404,112,404c29.696,0,55.616-16.304,69.416-40.392    C198.904,428.24,257.904,476,328,476c81.056,0,147.304-63.824,151.584-143.832c0.032-0.312,0.024-0.632,0.048-0.944    C498.048,327.648,512,311.44,512,292C512,272.624,498.136,256.44,479.816,252.792z M16,292c0-13.232,10.768-24,24-24    s24,10.768,24,24s-10.768,24-24,24S16,305.232,16,292z M112,388c-32.896,0-60.048-24.96-63.584-56.928    C66.44,327.192,80,311.168,80,292c0-19.168-13.56-35.192-31.584-39.072C51.952,220.96,79.104,196,112,196    s60.048,24.96,63.584,56.928C157.56,256.808,144,272.832,144,292c0,19.168,13.56,35.192,31.584,39.072    C172.048,363.04,144.896,388,112,388z M160,292c0-13.232,10.768-24,24-24s24,10.768,24,24s-10.768,24-24,24S160,305.232,160,292z     M224,292c0-19.44-13.952-35.648-32.368-39.232C187.96,212.04,153.672,180,112,180c-18.024,0-34.624,6.064-48.008,16.16    C86.896,153.272,132.072,124,184,124c72.6,0,131.92,57.224,135.64,128.912C301.592,256.768,288,272.816,288,292    c0,19.168,13.56,35.192,31.584,39.072C316.048,363.04,288.896,388,256,388s-60.048-24.96-63.584-56.928    C210.44,327.192,224,311.168,224,292z M328,268c13.232,0,24,10.768,24,24s-10.768,24-24,24s-24-10.768-24-24S314.768,268,328,268z     M328,460c-51.928,0-97.104-29.272-120.008-72.16C221.376,397.936,237.976,404,256,404c31.696,0,59.056-18.568,72-45.36    c12.944,26.792,40.304,45.36,72,45.36c18.024,0,34.624-6.064,48.008-16.16C425.104,430.728,379.928,460,328,460z M400,388    c-32.896,0-60.048-24.96-63.584-56.928C354.44,327.192,368,311.168,368,292c0-19.44-13.952-35.648-32.368-39.232    C331.824,172.328,265.376,108,184,108c-40.32,0-76.92,15.888-104.152,41.592C116.688,91.032,181.856,52,256,52    c112.296,0,204.032,89.464,207.816,200.856C445.68,256.64,432,272.752,432,292c0,19.168,13.56,35.192,31.584,39.072    C460.048,363.04,432.896,388,400,388z M472,316c-13.232,0-24-10.768-24-24s10.768-24,24-24s24,10.768,24,24S485.232,316,472,316z" fill="#FFFFFF"/>
	</g>
</g>
<g>
</g>
<g>
</g>
<g>
</g>
<g>
</g>
<g>
</g>
<g>
</g>
<g>
</g>
<g>
</g>
<g>
</g>
<g>
</g>
<g>
</g>
<g>
</g>
<g>
</g>
<g>
</g>
<g>
</g>
</svg>
