<svg id="Capa_1" data-name="Capa 1" xmlns="http://www.w3.org/2000/svg" viewBox="0 0 1720.8 512"><defs><style>.cls-1{fill:#fff;}</style></defs><title>Plan de travail 1300</title><path class="cls-1" d="M479.82,252.79C476,132.61,377.1,36,256,36S36,132.61,32.18,252.79a40,40,0,0,0,.19,78.44,79.91,79.91,0,0,0,149,32.38C198.9,428.24,257.9,476,328,476c81.06,0,147.3-63.82,151.58-143.83,0-.31,0-.63.05-.95a40,40,0,0,0,.19-78.43ZM16,292a24,24,0,1,1,24,24A24,24,0,0,1,16,292Zm96,96a64.07,64.07,0,0,1-63.58-56.93,40,40,0,0,0,0-78.14,64,64,0,0,1,127.16,0,40,40,0,0,0,0,78.14A64.07,64.07,0,0,1,112,388Zm48-96a24,24,0,1,1,24,24A24,24,0,0,1,160,292Zm64,0a40,40,0,0,0-32.37-39.23A79.8,79.8,0,0,0,64,196.16,136.08,136.08,0,0,1,184,124c72.6,0,131.92,57.22,135.64,128.91a40,40,0,0,0-.06,78.16,64,64,0,0,1-127.16,0A40,40,0,0,0,224,292Zm104-24a24,24,0,1,1-24,24A24,24,0,0,1,328,268Zm0,192a136.08,136.08,0,0,1-120-72.16,79.67,79.67,0,0,0,120-29.2,79.67,79.67,0,0,0,120,29.2A136.08,136.08,0,0,1,328,460Zm72-72a64.07,64.07,0,0,1-63.58-56.93,40,40,0,0,0-.79-78.3C331.82,172.33,265.38,108,184,108A151.31,151.31,0,0,0,79.85,149.59C116.69,91,181.86,52,256,52c112.3,0,204,89.46,207.82,200.86a40,40,0,0,0-.24,78.21A64.07,64.07,0,0,1,400,388Zm72-72a24,24,0,1,1,24-24A24,24,0,0,1,472,316Z"/><path class="cls-1" d="M669,319.12,621.3,195h35.08l30.74,82.57h.79L718.65,195H752L704.26,319.12Z"/><path class="cls-1" d="M760.42,195h32.32v28H760.42Zm32.12,36.26v87.89H760.62V231.23Z"/><path class="cls-1" d="M831.36,290.15c1.18,7.29,7.09,11.43,16.75,11.43,7.09,0,10.83-2.56,10.83-6.11,0-3.35-2-5.71-8.08-6.7l-13-2c-21.28-3.35-32.52-10.25-32.52-28.18,0-17.34,15.18-29.75,39.81-29.75,25.42,0,40.39,11.23,42.17,29.55l-26.21.79c-1.18-6.3-6.7-10.24-16.55-10.24-6.11,0-9.66,2.36-9.66,6.3,0,3,2.37,4.53,5.32,4.93l17.15,2.95c19.7,3.16,31.13,12,31.13,29.17,0,18.52-15.76,29.16-40.79,29.16-24.24,0-42.37-9.65-44.14-30.94Z"/><path class="cls-1" d="M958.65,231.23h31.92v87.89H958.65V305.91c-4.73,9.86-14.39,15.57-27.59,15.57-24,0-31.33-16.55-31.33-34.88V231.23h31.92v46.9c0,11.82,3.35,18.33,13,18.33,10.05,0,14-8.67,14-22.07Z"/><path class="cls-1" d="M1090.08,293.3c0,4.54,2,6.5,5.32,6.5a18.24,18.24,0,0,0,7.09-1.37v16.94c-4.53,3.16-10.84,5.72-19.9,5.72-10.84,0-19.31-5.52-22.27-15.57-5.12,10.25-15.17,15.57-29.16,15.57-17.14,0-28.38-8.87-28.38-23.85,0-16.94,12.22-24.23,31.34-27.58l24.63-4.14v-1.38c0-7.29-3.35-11.63-11-11.63-7.09,0-10.64,4.54-12,11l-29.56-2c2.76-19.31,17.15-32.71,43.55-32.71,23.25,0,40.4,10,40.4,34.48Zm-31.33-12.21-13,2.36c-7.68,1.58-12.22,3.94-12.22,9.66,0,4.53,3.55,7.48,8.87,7.48,9.07,0,16.36-6.7,16.36-18.13Z"/><path class="cls-1" d="M1143.67,195V319.12h-31.92V195Z"/><path class="cls-1" d="M1160.82,195h32.31v28h-32.31Zm32.11,36.26v87.89H1161V231.23Z"/><path class="cls-1" d="M1231.75,290.15c1.18,7.29,7.1,11.43,16.75,11.43,7.1,0,10.84-2.56,10.84-6.11,0-3.35-2-5.71-8.08-6.7l-13-2c-21.28-3.35-32.51-10.25-32.51-28.18,0-17.34,15.18-29.75,39.81-29.75,25.42,0,40.39,11.23,42.16,29.55l-26.2.79c-1.18-6.3-6.7-10.24-16.55-10.24-6.11,0-9.66,2.36-9.66,6.3,0,3,2.36,4.53,5.32,4.93l17.14,2.95c19.71,3.16,31.14,12,31.14,29.17,0,18.52-15.77,29.16-40.79,29.16-24.24,0-42.37-9.65-44.14-30.94Z"/><path class="cls-1" d="M1383.28,293.3c0,4.54,2,6.5,5.32,6.5a18.32,18.32,0,0,0,7.1-1.37v16.94c-4.54,3.16-10.84,5.72-19.91,5.72-10.83,0-19.31-5.52-22.26-15.57-5.13,10.25-15.18,15.57-29.17,15.57-17.14,0-28.37-8.87-28.37-23.85,0-16.94,12.22-24.23,31.33-27.58l24.63-4.14v-1.38c0-7.29-3.35-11.63-11-11.63-7.1,0-10.64,4.54-12,11l-29.56-2c2.76-19.31,17.14-32.71,43.55-32.71,23.25,0,40.39,10,40.39,34.48ZM1352,281.09l-13,2.36c-7.69,1.58-12.22,3.94-12.22,9.66,0,4.53,3.55,7.48,8.87,7.48,9.06,0,16.35-6.7,16.35-18.13Z"/><path class="cls-1" d="M1407.12,253.3H1395.3V233.6l6.5-1c8.87-1.38,11.63-6.11,13.8-14.19l3-11.43h20.1v24.24h22.86V253.3h-22.86v32.12c0,7.49,3.55,10.44,10,10.44a35.33,35.33,0,0,0,13.6-2.95V313.6c-6.7,4.93-14.39,7.88-26.41,7.88-14.78,0-28.77-6.11-28.77-26.8Z"/><path class="cls-1" d="M1474.31,195h32.32v28h-32.32Zm32.12,36.26v87.89h-31.92V231.23Z"/><path class="cls-1" d="M1567.12,321.48c-28.77,0-48.08-18.92-48.08-46.31,0-27.19,19.31-46.3,48.08-46.3,28.58,0,48.09,19.11,48.09,46.3C1615.21,302.56,1595.7,321.48,1567.12,321.48Zm0-24c11,0,16-9.06,16-22.27s-4.93-22.26-16-22.26c-11.23,0-16,9.06-16,22.26S1555.89,297.44,1567.12,297.44Z"/><path class="cls-1" d="M1659.74,319.12h-31.93V231.23h31.93v13.2c4.73-9.65,15.17-15.56,28.37-15.56,24,0,31.73,16.75,31.73,35.07v55.18h-31.92v-46.7c0-12-3.36-18.33-13-18.33-10.84,0-15.17,8.67-15.17,21.87Z"/></svg>